<svg xmlns="http://www.w3.org/2000/svg" viewBox="0 0 1122 1402" width="1122" height="1402" data-svgtrace="1" data-svgtrace-version="1"><path d="M 256 247.383 C 256 248.816, 258.923 249.963, 262.638 249.986 C 269.154 250.028, 291.252 258.189, 294.082 261.599 C 294.722 262.369, 295.764 263, 296.399 263 C 298.684 263, 312.308 278.021, 316.500 285.162 C 325.069 299.757, 334.183 318.895, 344.975 344.950 C 347.607 351.302, 355.035 369.100, 361.484 384.500 C 367.932 399.900, 376.029 419.250, 379.478 427.500 C 392.276 458.119, 401.393 479.669, 404.015 485.500 C 405.499 488.800, 408.627 496.113, 410.967 501.750 C 414.640 510.602, 415.538 512, 417.551 512 C 418.833 512, 420.153 511.562, 420.483 511.027 C 420.814 510.491, 422.642 509.315, 424.545 508.412 C 426.448 507.508, 431.042 503.967, 434.753 500.541 C 438.464 497.115, 441.962 494.129, 442.527 493.906 C 443.092 493.683, 449.145 487.735, 455.979 480.688 C 467.075 469.246, 468.275 467.670, 467.202 465.951 C 466.541 464.893, 466 463.227, 466 462.249 C 466 461.271, 465.169 458.902, 464.153 456.985 C 463.138 455.068, 460.622 448.100, 458.563 441.500 C 456.503 434.900, 454.235 428.150, 453.522 426.500 C 452.810 424.850, 450.808 419.225, 449.074 414 C 447.340 408.775, 445.517 403.600, 445.024 402.500 C 444.531 401.400, 442.248 394.875, 439.951 388 C 437.654 381.125, 435.168 374.150, 434.425 372.500 C 433.683 370.850, 431.963 366.125, 430.603 362 C 426.146 348.476, 423.036 339.534, 422.083 337.500 C 421.252 335.727, 417.317 323.617, 412.589 308.281 C 408.911 296.352, 409.597 280.631, 414.188 271.631 C 416.349 267.396, 421.845 261.993, 429.603 256.477 C 433.245 253.888, 435.526 253, 438.535 253 C 440.758 253, 444.342 252.100, 446.500 251 C 448.658 249.900, 451.453 249, 452.711 249 C 454.079 249, 455 248.396, 455 247.500 C 455 246.177, 443.278 246, 355.500 246 C 271.451 246, 256 246.215, 256 247.383 M 673 247.421 C 673 248.202, 674.237 249.071, 675.750 249.352 C 677.263 249.633, 681.650 250.413, 685.500 251.084 C 696.098 252.933, 707.630 258.682, 713.228 264.909 C 719.206 271.557, 721.476 278.071, 721.452 288.500 C 721.419 302.363, 719.732 307.416, 675.045 427.500 L 659.043 470.500 677.590 488.750 C 687.791 498.787, 696.604 507, 697.174 507 C 697.745 507, 699.548 508.125, 701.182 509.500 C 702.816 510.875, 704.692 512, 705.351 512 C 706.429 512, 715 495.055, 715 492.924 C 715 492.440, 716.523 488.771, 718.384 484.772 C 720.245 480.772, 722.076 476.059, 722.453 474.297 C 722.830 472.535, 723.908 470.060, 724.849 468.797 C 725.790 467.534, 727.396 464.025, 728.419 461 C 729.442 457.975, 730.667 455.073, 731.140 454.550 C 731.613 454.028, 732 452.976, 732 452.214 C 732 451.452, 733.312 448.055, 734.916 444.664 C 738.401 437.298, 739.757 434.176, 744.322 423 C 750.139 408.760, 751.283 406.002, 753.965 399.750 C 754.496 398.512, 756.570 393.450, 758.573 388.500 C 760.577 383.550, 762.997 377.700, 763.950 375.500 C 764.904 373.300, 766.277 369.925, 767.002 368 C 767.727 366.075, 768.698 364.072, 769.160 363.550 C 769.622 363.028, 770 362.028, 770 361.330 C 770 360.631, 771.125 357.600, 772.500 354.594 C 773.875 351.588, 775 348.886, 775 348.589 C 775 348.293, 776.284 345.226, 777.852 341.775 C 779.421 338.324, 781.918 332.350, 783.401 328.500 C 784.884 324.650, 787.157 319.250, 788.453 316.500 C 789.748 313.750, 792.031 308.800, 793.526 305.500 C 800.496 290.115, 817.394 266, 821.205 266 C 821.770 266, 824.379 264.424, 827.003 262.498 C 829.627 260.571, 834.863 257.858, 838.637 256.469 C 842.412 255.079, 846.406 253.486, 847.513 252.929 C 848.620 252.372, 852.952 251.321, 857.139 250.594 C 865.098 249.211, 867 248.507, 867 246.941 C 867 246.359, 829.944 246, 770 246 C 686.856 246, 673 246.203, 673 247.421 M 553 444.001 C 534.674 445.710, 514.931 453.209, 497 465.270 C 488.354 471.086, 483.222 475.194, 470 486.884 C 464.775 491.504, 456.360 498.467, 451.300 502.358 C 446.240 506.250, 442.291 509.624, 442.523 509.856 C 442.755 510.089, 444.503 509.091, 446.406 507.639 C 448.309 506.188, 450.258 505, 450.737 505 C 451.216 505, 453.134 503.425, 455 501.500 C 456.866 499.575, 459.031 498, 459.811 498 C 460.591 498, 464.665 494.712, 468.865 490.694 C 477.584 482.351, 486.373 475.002, 487.639 474.996 C 488.112 474.993, 490.803 473.245, 493.619 471.110 C 501.170 465.385, 509.732 460.065, 510.370 460.703 C 510.676 461.010, 508.678 463.785, 505.928 466.870 C 495.725 478.318, 489.710 495.708, 489.626 514 C 489.546 531.499, 494.291 545.717, 504.751 559.322 C 509.889 566.004, 520.224 574.862, 527.044 578.428 C 541.481 585.977, 567.985 587.613, 585.410 582.031 C 599.723 577.445, 600.550 576.943, 612.123 565.821 C 617.291 560.855, 627 547.279, 627 545.019 C 627 544.491, 628.082 541.683, 629.405 538.780 C 634.871 526.779, 634.928 505.445, 629.536 490.226 C 624.995 477.411, 624.360 476.031, 621.188 472.084 C 619.434 469.902, 618 467.641, 618 467.059 C 618 464.873, 622.142 466.136, 628.219 470.174 C 631.673 472.470, 636.264 475.508, 638.421 476.924 C 640.577 478.341, 645.143 481.975, 648.567 485 C 660.316 495.379, 682.695 512.268, 684.085 511.805 C 684.637 511.621, 681.806 509.172, 677.794 506.363 C 673.782 503.554, 663.750 495.507, 655.500 488.481 C 619.325 457.673, 602.885 448.680, 575 444.452 C 564.916 442.923, 564.625 442.917, 553 444.001 M 563 448.796 C 563 449.832, 568.998 451.336, 569.826 450.507 C 570.598 449.735, 569.806 449.299, 566.250 448.537 C 564.367 448.134, 563 448.243, 563 448.796 M 538 451.857 C 519.440 459.128, 507.092 472.242, 500.523 491.658 C 496.879 502.428, 496.035 517.519, 498.458 528.570 C 504.474 556.004, 523.084 574.560, 549.591 579.555 C 562.745 582.033, 578.312 579.990, 589.283 574.346 C 594.217 571.808, 591.117 570.974, 585.681 573.378 C 577.707 576.904, 570.408 578.342, 560.500 578.341 C 533.905 578.335, 511.535 561.520, 501.851 534.254 C 498.942 526.063, 498.210 507.811, 500.437 499 C 501.340 495.425, 502.174 491.825, 502.290 491 C 502.405 490.175, 502.774 489.275, 503.108 489 C 503.443 488.725, 505.395 485.350, 507.445 481.500 C 514.437 468.374, 528.059 457.392, 543.313 452.586 C 544.311 452.271, 544.847 451.561, 544.504 451.007 C 543.703 449.710, 543.368 449.753, 538 451.857 M 583 452.927 C 583 453.436, 585.541 455.017, 588.648 456.439 C 591.754 457.861, 596.366 460.507, 598.898 462.319 C 605.686 467.178, 608.177 467.586, 603 462.991 C 598.668 459.147, 586.381 452, 584.104 452 C 583.497 452, 583 452.417, 583 452.927 M 533 460.540 C 533 461.798, 537.183 469.150, 537.640 468.694 C 538.178 468.155, 534.276 460, 533.480 460 C 533.216 460, 533 460.243, 533 460.540 M 581.553 472.894 C 577.941 480.102, 574.426 485.993, 573.743 485.985 C 573.059 485.976, 571.854 485.560, 571.063 485.060 C 569.822 484.275, 569.855 483.088, 571.313 476.303 C 573.258 467.254, 573.350 466.232, 572.098 467.550 C 571.603 468.072, 570.427 472.012, 569.486 476.306 C 567.852 483.759, 567.657 484.097, 565.177 483.806 C 563.393 483.596, 562.363 482.717, 561.889 481 C 561.227 478.600, 560.811 478.894, 560.593 481.917 C 560.537 482.696, 559.280 483.495, 557.800 483.693 C 555.432 484.011, 554.981 483.601, 554.046 480.277 C 553.461 478.200, 552.702 474.803, 552.360 472.728 C 552.017 470.653, 551.346 468.714, 550.869 468.419 C 549.636 467.657, 549.805 469.684, 551.500 476 C 553.502 483.460, 553.397 484.498, 550.500 485.818 C 548.076 486.923, 547.881 486.719, 544.027 479.054 C 541.842 474.707, 539.592 470.866, 539.027 470.517 C 537.438 469.535, 537.708 470.276, 542.109 478.977 C 546.065 486.799, 546.152 487.174, 544.454 489.051 C 543.484 490.123, 542.329 491, 541.888 491 C 541.447 491, 538.530 487.837, 535.406 483.970 C 532.282 480.104, 529.493 477.174, 529.208 477.459 C 528.922 477.744, 531.174 481.208, 534.212 485.156 L 539.735 492.335 537.769 495.667 C 536.687 497.500, 535.693 499, 535.560 499 C 535.426 499, 529.134 495.587, 521.576 491.416 C 514.019 487.244, 507.572 484.094, 507.251 484.416 C 506.495 485.172, 505.510 484.552, 520.750 492.923 C 528.038 496.926, 533.993 500.719, 533.985 501.351 C 533.976 501.983, 533.567 503.136, 533.074 503.914 C 532.308 505.125, 531.048 505.084, 524.305 503.627 C 519.974 502.691, 515.363 501.646, 514.059 501.305 C 512.493 500.896, 511.913 501.051, 512.353 501.763 C 512.720 502.355, 517.316 503.819, 522.567 505.015 C 531.855 507.131, 532.106 507.263, 531.807 509.845 C 531.519 512.336, 531.180 512.500, 526.340 512.500 C 519.035 512.500, 518.819 513.608, 525.966 514.417 C 531.766 515.073, 532 515.209, 532 517.936 C 532 520.529, 531.616 520.831, 527.523 521.444 C 525.061 521.813, 522.755 522.588, 522.398 523.165 C 521.784 524.159, 523.420 523.991, 530.706 522.313 C 532.455 521.910, 533.051 522.354, 533.577 524.449 C 533.942 525.903, 534.074 527.239, 533.870 527.417 C 533.667 527.595, 527.739 530.775, 520.697 534.484 C 513.656 538.193, 508.095 541.429, 508.341 541.674 C 508.587 541.920, 514.712 539.152, 521.953 535.523 L 535.119 528.926 537.026 531.213 C 538.075 532.471, 538.948 533.737, 538.967 534.027 C 538.985 534.317, 535.850 537.680, 532 541.500 C 528.150 545.320, 525 548.837, 525 549.314 C 525 549.791, 528.487 547.015, 532.750 543.144 C 539.705 536.828, 540.700 536.237, 542.445 537.388 C 546.987 540.384, 546.845 541.315, 539.726 555.149 C 536.006 562.379, 533.156 568.489, 533.393 568.727 C 533.631 568.964, 536.527 564.060, 539.831 557.829 C 549.549 539.497, 548.657 540.746, 551.102 542.055 C 552.941 543.039, 553.158 543.789, 552.636 547.351 C 552.301 549.633, 551.725 552.583, 551.356 553.906 C 550.942 555.393, 551.063 556.079, 551.673 555.702 C 552.217 555.366, 553.220 552.596, 553.902 549.546 C 554.991 544.681, 555.442 544, 557.572 544 C 559.939 544, 560 544.200, 560 551.941 C 560 556.309, 560.450 560.160, 561 560.500 C 561.637 560.894, 562 558.010, 562 552.559 L 562 544 564.933 544 C 568.034 544, 568.365 544.519, 569.560 551.261 C 569.927 553.330, 570.691 555.309, 571.259 555.660 C 571.915 556.065, 572.073 555.422, 571.694 553.899 C 571.365 552.580, 570.798 549.630, 570.435 547.345 C 569.860 543.726, 570.058 543.039, 571.973 542.014 C 573.182 541.367, 574.324 540.991, 574.511 541.178 C 574.698 541.365, 577.885 547.813, 581.593 555.506 C 585.301 563.200, 588.494 569.019, 588.688 568.437 C 588.881 567.856, 586.148 561.332, 582.613 553.940 L 576.186 540.500 578.583 538.032 L 580.981 535.565 585.469 539.970 C 587.938 542.393, 590.184 544.149, 590.461 543.873 C 590.737 543.596, 589.172 541.620, 586.982 539.482 C 582.430 535.037, 582.297 534.425, 585.141 531.006 L 587.215 528.513 601.107 535.808 C 608.748 539.821, 614.991 542.743, 614.981 542.302 C 614.970 541.861, 609.567 538.623, 602.974 535.106 C 586.702 526.425, 587.325 526.960, 589.549 523.566 C 591.311 520.876, 591.954 511.353, 590.530 509.048 C 589.709 507.720, 592.357 506.550, 600.759 504.527 C 604.751 503.566, 608.265 502.380, 608.568 501.890 C 609.335 500.649, 608.857 500.718, 599.293 503.226 C 590.950 505.415, 590.780 505.420, 589.402 503.535 C 588.631 502.481, 588.007 501.366, 588.015 501.059 C 588.024 500.751, 594.098 497.125, 601.513 493 C 608.928 488.875, 614.996 485.163, 614.997 484.750 C 615.001 483.596, 614.649 483.737, 607.340 487.825 C 603.578 489.928, 597.534 493.285, 593.909 495.285 L 587.317 498.920 585.060 495.868 L 582.803 492.815 585.235 490.157 C 587.863 487.287, 592.296 479.962, 591.742 479.408 C 591.555 479.221, 589.447 481.753, 587.057 485.034 C 584.668 488.315, 582.172 491, 581.511 491 C 579.386 491, 576.780 487.269, 577.444 485.177 C 577.787 484.095, 580.553 478.164, 583.590 471.995 C 586.628 465.826, 588.889 460.556, 588.617 460.283 C 588.344 460.011, 585.165 465.685, 581.553 472.894 M 613.523 476.964 C 613.195 477.493, 613.881 478.881, 615.047 480.047 C 616.213 481.213, 616.917 482.416, 616.613 482.720 C 616.308 483.025, 616.946 484.520, 618.030 486.041 C 619.113 487.563, 620 489.302, 620 489.904 C 620 490.507, 620.450 491, 621 491 C 622.271 491, 622.255 490.654, 620.839 487.547 C 620.201 486.146, 619.275 485, 618.780 485 C 618.286 485, 618.139 484.585, 618.453 484.077 C 618.952 483.268, 615.359 476, 614.460 476 C 614.272 476, 613.850 476.434, 613.523 476.964 M 624 513 C 624 516.300, 624.347 519, 624.770 519 C 625.194 519, 625.655 516.300, 625.795 513 C 625.947 509.407, 625.638 507, 625.024 507 C 624.439 507, 624 509.572, 624 513 M 594 513 C 594 513.550, 596.277 514, 599.059 514 C 602.177 514, 603.881 513.616, 603.500 513 C 603.160 512.450, 600.884 512, 598.441 512 C 595.998 512, 594 512.450, 594 513 M 593 521.807 C 593 522.741, 607.043 526.291, 607.788 525.545 C 608.350 524.984, 607.771 524.767, 599.846 522.568 C 593.323 520.759, 593 520.723, 593 521.807 M 623 524.411 C 623 525.737, 622.118 529.655, 621.040 533.118 C 619.123 539.279, 619.099 541.303, 620.965 539.433 C 622.108 538.288, 625 527.435, 625 524.290 C 625 523.030, 624.550 522, 624 522 C 623.450 522, 623 523.085, 623 524.411 M 421.393 527.591 C 422.221 529.763, 436.322 563.418, 438.952 569.500 C 439.903 571.700, 443.066 579.350, 445.981 586.500 C 448.896 593.650, 452.090 601.300, 453.079 603.500 C 454.068 605.700, 458.230 615.600, 462.330 625.500 C 466.429 635.400, 472.822 650.700, 476.537 659.500 C 488.662 688.225, 491.982 696.478, 491.991 697.921 C 491.996 698.703, 492.622 700.053, 493.382 700.921 C 494.753 702.488, 505 725.661, 505 727.195 C 505 727.635, 506.297 730.808, 507.883 734.247 C 513.839 747.166, 516 752.277, 516 753.447 C 516 754.109, 518.173 759.118, 520.830 764.576 C 523.486 770.034, 527.163 778.100, 529 782.500 C 530.837 786.900, 533.613 793.313, 535.169 796.752 C 536.726 800.190, 537.927 803.340, 537.838 803.752 C 537.749 804.163, 538.200 805.767, 538.839 807.315 C 539.477 808.863, 540 810.496, 540 810.943 C 540 811.390, 540.570 812.228, 541.267 812.806 C 541.963 813.384, 546.567 823.343, 551.496 834.935 C 556.426 846.528, 560.886 855.871, 561.408 855.697 C 561.930 855.523, 562.651 854.733, 563.010 853.940 C 563.369 853.148, 564.414 851.001, 565.331 849.169 C 566.249 847.337, 567 845.376, 567 844.812 C 567 844.248, 568.387 840.797, 570.082 837.143 C 571.777 833.489, 574.477 827.667, 576.082 824.205 C 577.687 820.743, 579 817.282, 579 816.514 C 579 815.746, 579.400 814.871, 579.889 814.568 C 580.378 814.266, 581.074 812.840, 581.436 811.399 C 581.798 809.958, 582.911 806.916, 583.910 804.640 C 584.909 802.363, 586.547 798.475, 587.551 796 C 588.554 793.525, 589.966 790.790, 590.688 789.921 C 591.409 789.053, 592 787.937, 592 787.442 C 592 785.789, 597.263 772.521, 598.522 771 C 599.205 770.175, 600.070 768.375, 600.445 767 C 600.819 765.625, 601.498 763.600, 601.953 762.500 C 602.408 761.400, 604.259 756.900, 606.066 752.500 C 607.873 748.100, 609.879 743.825, 610.524 743 C 611.829 741.330, 612.055 740.786, 616.079 729.624 C 617.640 725.292, 619.532 721.017, 620.281 720.124 C 621.031 719.231, 622.251 716.475, 622.992 714 C 624.188 710.004, 625.286 707.267, 630.413 695.500 C 632.087 691.657, 632.643 690.318, 639.548 673.500 C 642.709 665.800, 645.679 659.072, 646.148 658.550 C 646.617 658.027, 647 657.006, 647 656.280 C 647 655.554, 648.771 651.256, 650.936 646.730 C 653.101 642.203, 655.626 636.250, 656.547 633.500 C 657.469 630.750, 659.477 625.958, 661.010 622.851 C 662.544 619.744, 664.801 614.344, 666.026 610.851 C 667.251 607.358, 669.471 602.018, 670.959 598.984 C 672.448 595.951, 673.970 592.256, 674.342 590.774 C 674.714 589.292, 676.766 584.349, 678.901 579.790 C 681.037 575.230, 683.536 569.250, 684.454 566.500 C 685.372 563.750, 687.268 559.025, 688.666 556 C 694.568 543.238, 700.889 526.560, 699.963 526.198 C 699.537 526.032, 695.659 527.652, 691.345 529.799 C 683.844 533.530, 676.746 538.655, 646.872 561.908 C 639.517 567.632, 630.700 574.119, 627.278 576.324 L 621.055 580.332 615.416 596.916 C 608.401 617.543, 610.013 612.736, 597.446 650.500 C 586.560 683.214, 571.786 726.118, 569.555 731.500 C 568.871 733.150, 566.985 738.744, 565.364 743.931 C 562.334 753.625, 560 756.731, 560 751.070 C 560 749.366, 559.578 747.191, 559.062 746.236 C 557.572 743.477, 552.504 729.191, 550.111 721 C 548.905 716.875, 547.496 712.600, 546.978 711.500 C 545.389 708.122, 522 636.817, 522 635.350 C 522 634.592, 521.560 633.191, 521.023 632.236 C 519.555 629.627, 515 615.216, 515 613.179 C 515 612.201, 514.618 610.972, 514.151 610.450 C 513.684 609.928, 511.126 603.097, 508.466 595.272 L 503.631 581.043 494.065 574.575 C 488.804 571.018, 479.325 563.976, 473 558.926 C 451.404 541.684, 430.051 527.560, 423.643 526.279 C 421.019 525.754, 420.751 525.910, 421.393 527.591 M 610.521 553.972 C 608.514 556.706, 604.856 560.718, 602.392 562.886 C 599.929 565.054, 598.365 567.107, 598.916 567.448 C 600.724 568.566, 616 552.884, 616 549.910 C 616 547.791, 613.934 549.322, 610.521 553.972 M 167 1118.487 C 167 1118.754, 168.568 1119.628, 170.485 1120.429 C 173.817 1121.822, 175.365 1124.171, 179.092 1133.500 C 179.531 1134.600, 180.767 1137.525, 181.837 1140 C 182.908 1142.475, 186.325 1150.800, 189.432 1158.500 C 198.001 1179.737, 198.864 1181.796, 200.549 1185 C 202.725 1189.138, 204.660 1188.605, 207.451 1183.097 C 208.853 1180.330, 210 1177.416, 210 1176.622 C 210 1175.827, 212.180 1170.075, 214.845 1163.839 C 217.511 1157.602, 220.502 1150.025, 221.493 1147 C 224.081 1139.100, 230.893 1123.804, 232.738 1121.750 C 233.602 1120.787, 235.140 1120, 236.155 1120 C 237.170 1120, 238 1119.550, 238 1119 C 238 1118.404, 234.167 1118, 228.500 1118 C 222.833 1118, 219 1118.404, 219 1119 C 219 1119.550, 219.605 1120, 220.345 1120 C 222.348 1120, 225 1123.347, 225 1125.874 C 225 1128.097, 208.326 1172.696, 206.851 1174.417 C 206.410 1174.932, 205.767 1174.494, 205.385 1173.417 C 205.011 1172.363, 203.895 1169.664, 202.905 1167.419 C 201.915 1165.175, 200.168 1160.900, 199.025 1157.919 C 197.881 1154.939, 196.516 1151.600, 195.991 1150.500 C 192.851 1143.917, 187 1128.250, 187 1126.427 C 187 1125.240, 187.900 1123.126, 189 1121.727 C 190.100 1120.329, 191 1118.918, 191 1118.592 C 191 1118.267, 185.600 1118, 179 1118 C 172.400 1118, 167 1118.219, 167 1118.487 M 286.638 1118.777 C 286.373 1119.205, 282.345 1130.343, 277.686 1143.527 C 263.520 1183.617, 262.891 1185, 258.845 1185 C 257.830 1185, 257 1185.450, 257 1186 C 257 1186.593, 260.667 1187, 266 1187 C 270.950 1187, 275 1186.581, 275 1186.070 C 275 1185.558, 273.988 1184.995, 272.750 1184.820 C 270.903 1184.557, 270.450 1183.784, 270.222 1180.500 C 269.836 1174.937, 272.123 1167.747, 274.685 1166.470 C 275.841 1165.893, 277.463 1164.861, 278.289 1164.175 C 279.329 1163.312, 282.950 1163.016, 290.040 1163.214 L 300.288 1163.500 303.665 1172.276 C 306.322 1179.179, 306.817 1181.473, 305.986 1183.026 C 305.405 1184.112, 304.270 1185, 303.465 1185 C 302.659 1185, 302 1185.450, 302 1186 C 302 1186.603, 306.167 1187, 312.500 1187 C 322.398 1187, 325.950 1185.957, 320.615 1184.618 C 318.196 1184.011, 314.825 1178.276, 313.409 1172.360 C 313.032 1170.787, 312.398 1169.050, 312 1168.500 C 311.602 1167.950, 310.956 1166.166, 310.565 1164.535 C 310.174 1162.904, 309.042 1159.754, 308.050 1157.535 C 307.058 1155.316, 305.649 1151.700, 304.919 1149.500 C 304.189 1147.300, 303.234 1145.072, 302.796 1144.550 C 302.358 1144.027, 301.997 1142.902, 301.994 1142.050 C 301.990 1141.197, 301.369 1139.314, 300.612 1137.864 C 299.855 1136.414, 297.773 1131.351, 295.985 1126.614 C 292.966 1118.612, 292.535 1118, 289.926 1118 C 288.382 1118, 286.902 1118.350, 286.638 1118.777 M 358 1119 C 358 1119.550, 358.649 1120, 359.443 1120 C 360.237 1120, 361.587 1121, 362.443 1122.223 C 363.765 1124.110, 363.985 1128.517, 363.900 1151.473 C 363.845 1166.338, 363.493 1179.625, 363.118 1181 C 362.742 1182.375, 361.437 1183.944, 360.217 1184.487 C 358.998 1185.030, 358 1185.825, 358 1186.254 C 358 1186.683, 369.568 1186.914, 383.706 1186.767 L 409.411 1186.500 410.096 1183 C 411.684 1174.883, 412.083 1170, 411.159 1170 C 410.629 1170, 409.762 1171.244, 409.232 1172.763 C 407.673 1177.237, 403.126 1181.884, 399.176 1183.041 C 397.154 1183.633, 390.550 1183.979, 384.500 1183.809 L 373.500 1183.500 373.235 1154.063 L 372.969 1124.627 376.181 1121.313 L 379.392 1118 368.696 1118 C 362.232 1118, 358 1118.396, 358 1119 M 447.316 1118.649 C 447.673 1119.006, 448.985 1119.806, 450.232 1120.428 L 452.500 1121.558 452.765 1151.909 C 453.040 1183.434, 452.856 1185, 448.878 1185 C 447.845 1185, 447 1185.450, 447 1186 C 447 1187.313, 497.654 1187.370, 498.464 1186.058 C 498.784 1185.540, 499.511 1182.502, 500.079 1179.308 C 500.647 1176.114, 501.342 1172.713, 501.623 1171.750 C 502.625 1168.325, 500.273 1170.069, 498.455 1174.099 C 497.439 1176.353, 495.045 1179.391, 493.135 1180.849 C 489.872 1183.341, 488.908 1183.519, 477.041 1183.825 C 461.176 1184.234, 461.824 1185.035, 462.218 1165.500 L 462.500 1151.500 469.177 1151.206 C 477.954 1150.819, 482.799 1152.746, 483.641 1156.956 C 484.845 1162.977, 486 1159.818, 486 1150.500 C 486 1145.275, 485.663 1141.010, 485.250 1141.022 C 484.837 1141.034, 483.825 1142.480, 483 1144.235 C 481.194 1148.078, 477.601 1149.223, 468.683 1148.796 L 462.500 1148.500 462.221 1135.301 C 461.880 1119.138, 461.504 1119.538, 476.415 1120.201 C 488.173 1120.725, 491.533 1122.028, 494.999 1127.408 L 497.500 1131.290 497.816 1126.975 C 497.989 1124.602, 497.868 1121.612, 497.547 1120.330 L 496.962 1118 471.814 1118 C 457.983 1118, 446.959 1118.292, 447.316 1118.649 M 539 1119 C 539 1119.550, 539.675 1120, 540.500 1120 C 541.325 1120, 542.900 1120.900, 544 1122 C 545.906 1123.906, 546 1125.333, 546 1152.277 C 546 1176.252, 545.763 1180.893, 544.443 1182.777 C 543.587 1184, 542.264 1185, 541.502 1185 C 540.741 1185, 539.840 1185.450, 539.500 1186 C 539.108 1186.635, 541.823 1187, 546.941 1187 C 554.510 1187, 557.480 1185.882, 553.012 1184.713 C 549.643 1183.832, 549 1179.647, 549 1158.590 C 549 1140.213, 549.172 1138.155, 550.829 1136.655 C 551.835 1135.745, 553.130 1135, 553.707 1135 C 554.284 1135, 558.073 1139.317, 562.128 1144.592 C 585.632 1175.175, 594.831 1186.535, 596.324 1186.823 C 597.863 1187.120, 598 1184.633, 598 1156.441 L 598 1125.736 601.500 1122.435 C 603.425 1120.620, 605 1118.879, 605 1118.567 C 605 1118.255, 601.400 1118, 597 1118 C 592.333 1118, 589 1118.417, 589 1119 C 589 1119.550, 589.884 1120, 590.965 1120 C 592.045 1120, 593.395 1120.870, 593.965 1121.934 C 595.268 1124.368, 595.384 1170, 594.088 1170 C 593.325 1170, 580.823 1154.231, 557.417 1123.750 L 553.002 1118 546.001 1118 C 542 1118, 539 1118.429, 539 1119 M 640.991 1120.750 C 640.987 1122.263, 640.699 1125.862, 640.352 1128.750 C 639.916 1132.380, 640.073 1134, 640.861 1134 C 641.487 1134, 642.002 1133.213, 642.004 1132.250 C 642.011 1128.828, 645.910 1124.091, 650.404 1122.044 C 655.375 1119.779, 663.911 1119.311, 665.800 1121.200 C 666.678 1122.078, 667 1130.195, 667 1151.477 C 667 1176.176, 666.766 1180.890, 665.443 1182.777 C 664.587 1184, 663.237 1185, 662.443 1185 C 661.649 1185, 661 1185.450, 661 1186 C 661 1186.603, 665.167 1187, 671.500 1187 C 677.833 1187, 682 1186.603, 682 1186 C 682 1185.450, 681.155 1185, 680.122 1185 C 676.139 1185, 675.960 1183.456, 676.235 1151.380 L 676.500 1120.500 684.331 1120.688 C 693.877 1120.917, 696.489 1122.384, 699.331 1129.110 C 700.467 1131.799, 701.702 1134, 702.076 1134 C 702.736 1134, 702.412 1127.821, 701.407 1121.250 L 700.909 1118 670.955 1118 L 641 1118 640.991 1120.750 M 739 1118.763 C 739 1119.182, 740.013 1119.970, 741.250 1120.513 L 743.500 1121.500 743.500 1152.500 L 743.500 1183.500 741.250 1184.487 C 737.006 1186.349, 739.013 1187, 749 1187 C 755 1187, 759 1186.600, 759 1186 C 759 1185.450, 758.190 1185, 757.201 1185 C 753.455 1185, 752.937 1179.975, 753.651 1150.565 C 754.322 1122.943, 754.334 1122.827, 756.662 1121.302 C 757.948 1120.459, 759 1119.372, 759 1118.885 C 759 1118.398, 754.500 1118, 749 1118 C 743.500 1118, 739 1118.343, 739 1118.763 M 795 1119 C 795 1119.550, 795.830 1120, 796.845 1120 C 797.860 1120, 799.435 1120.823, 800.345 1121.829 C 801.804 1123.441, 802 1127.058, 802 1152.394 C 802 1170.291, 801.610 1181.861, 800.965 1183.066 C 800.395 1184.130, 799.045 1185, 797.965 1185 C 796.884 1185, 796 1185.450, 796 1186 C 796 1186.578, 799.167 1187, 803.500 1187 C 811.272 1187, 812.798 1186.140, 808.500 1184.182 L 806 1183.043 806 1157.521 C 806 1143.485, 806.362 1132, 806.804 1132 C 808.090 1132, 813.230 1137.771, 821.144 1148.099 C 847.505 1182.500, 851.196 1187, 853.056 1187 C 854.940 1187, 855 1186.030, 855 1155.530 L 855 1124.060 858 1121.842 C 859.650 1120.622, 861 1119.259, 861 1118.812 C 861 1118.365, 857.400 1118, 853 1118 C 848.333 1118, 845 1118.417, 845 1119 C 845 1119.550, 845.810 1120, 846.800 1120 C 850.754 1120, 851 1121.532, 851 1146.200 C 851 1159.290, 850.727 1170, 850.394 1170 C 850.061 1170, 848.823 1168.798, 847.644 1167.330 C 844.665 1163.619, 820.006 1131.845, 814.240 1124.287 L 809.500 1118.073 802.250 1118.037 C 798.059 1118.015, 795 1118.422, 795 1119 M 920.063 1120.187 C 919.539 1121.459, 914.576 1135.325, 909.033 1151 C 903.490 1166.675, 898.133 1180.625, 897.127 1182 C 896.122 1183.375, 894.332 1184.644, 893.150 1184.820 C 891.967 1184.995, 891 1185.558, 891 1186.070 C 891 1186.581, 894.825 1187, 899.500 1187 C 907.448 1187, 910.564 1185.904, 906.005 1184.712 C 902.998 1183.925, 902.470 1181.170, 904.327 1175.943 C 905.247 1173.352, 906 1170.686, 906 1170.020 C 906 1169.354, 906.940 1167.488, 908.089 1165.874 L 910.179 1162.940 922.339 1163.220 L 934.500 1163.500 936.597 1169.500 C 937.750 1172.800, 938.952 1176.175, 939.268 1177 C 940.581 1180.432, 940.685 1181.588, 939.830 1183.250 C 939.335 1184.213, 938.270 1185, 937.465 1185 C 936.659 1185, 936 1185.450, 936 1186 C 936 1186.603, 940.167 1187, 946.500 1187 C 952.310 1187, 957 1186.584, 957 1186.070 C 957 1185.558, 956.033 1184.995, 954.852 1184.820 C 953.671 1184.644, 952.336 1183.825, 951.886 1183 C 949.930 1179.413, 947 1171.985, 947 1170.614 C 947 1169.791, 946.550 1168.840, 946 1168.500 C 945.450 1168.160, 945 1167.189, 945 1166.342 C 945 1165.495, 944.272 1163.159, 943.381 1161.151 C 942.491 1159.143, 941.141 1156.082, 940.381 1154.349 C 939.622 1152.616, 939 1150.505, 939 1149.658 C 939 1148.811, 938.605 1147.874, 938.123 1147.576 C 937.641 1147.278, 936.724 1144.961, 936.086 1142.428 C 935.448 1139.894, 934.047 1135.949, 932.973 1133.661 C 931.898 1131.372, 930.227 1127.025, 929.260 1124 C 927.647 1118.961, 927.228 1118.474, 924.257 1118.187 C 921.651 1117.936, 920.828 1118.328, 920.063 1120.187 M 286 1130.265 C 286 1131.510, 285.166 1134.098, 284.147 1136.015 C 283.127 1137.932, 281.971 1141.243, 281.578 1143.373 C 281.185 1145.503, 280.482 1147.978, 280.016 1148.873 C 277.508 1153.687, 275.967 1158.138, 276.507 1159.011 C 277.104 1159.978, 299 1160.476, 299 1159.523 C 299 1158.144, 291.429 1139.111, 289.851 1136.524 C 288.837 1134.861, 288.006 1132.263, 288.004 1130.750 C 288.002 1129.237, 287.550 1128, 287 1128 C 286.450 1128, 286 1129.019, 286 1130.265 M 919.565 1132.418 C 919.200 1134.848, 918.261 1137.368, 917.477 1138.019 C 916.694 1138.669, 915.749 1140.843, 915.377 1142.850 C 914.773 1146.112, 912.464 1153.393, 910.482 1158.286 C 909.811 1159.943, 910.508 1160.052, 920.129 1159.786 C 930.055 1159.512, 930.514 1159.402, 930.823 1157.227 C 931.205 1154.535, 928.819 1146.940, 924.855 1138.225 C 923.285 1134.774, 922 1131.061, 922 1129.975 C 922 1126.230, 920.226 1128.010, 919.565 1132.418" stroke="none" fill="#3a1e51" fill-rule="evenodd"/></svg>