<svg xmlns="http://www.w3.org/2000/svg" viewBox="0 0 1122 1402" width="1122" height="1402" data-svgtrace="1" data-svgtrace-version="1"><path d="M -0 701.001 L -0 1402.002 561.250 1401.751 L 1122.500 1401.500 1122.751 700.750 L 1123.001 0 561.501 0 L 0 0 -0 701.001 M 0.497 701.500 C 0.497 1087.050, 0.611 1244.625, 0.750 1051.668 C 0.889 858.710, 0.889 543.260, 0.750 350.668 C 0.611 158.075, 0.497 315.950, 0.497 701.500 M 529.782 77.156 C 522.265 81.234, 511.142 90.669, 506.751 96.689 C 492.846 115.757, 488.982 138.710, 495.923 161 C 499.066 171.094, 504.629 179.635, 514.345 189.285 C 521.517 196.408, 524.734 198.796, 531.345 201.899 C 542.484 207.129, 548.546 208.422, 562 208.437 C 572.427 208.449, 578.438 207.529, 584.500 204.992 C 585.600 204.532, 587.661 203.906, 589.079 203.602 C 590.498 203.297, 593.648 201.466, 596.079 199.534 C 598.511 197.601, 600.965 196.015, 601.534 196.010 C 602.766 195.998, 611.415 187.141, 615.704 181.500 C 620.209 175.573, 625.482 164.504, 627.882 155.936 C 630.443 146.791, 630.631 135.993, 628.419 125.208 C 626.864 117.631, 620.863 103.428, 617.558 99.500 C 615.565 97.132, 615.721 97.632, 619.428 105.500 C 621.019 108.876, 622.932 115.565, 623.801 120.797 C 625.209 129.272, 625.202 130.908, 623.716 139.290 C 620.198 159.139, 608.269 175.346, 590.889 183.889 C 581.373 188.567, 575.057 190.005, 564.114 189.988 C 529.890 189.935, 501.606 157.159, 505.984 122.627 C 506.519 118.403, 507.417 114.089, 507.979 113.040 C 508.540 111.990, 509 110.235, 509 109.138 C 509 105.829, 515.598 94.236, 521.087 87.899 C 523.926 84.623, 528.667 80.337, 531.624 78.374 C 534.581 76.411, 537 74.624, 537 74.403 C 537 73.521, 535.252 74.188, 529.782 77.156 M 559.667 221.667 C 558.617 222.717, 558.888 225.813, 560.096 226.559 C 560.699 226.932, 561.898 226.531, 562.760 225.669 C 564.052 224.377, 564.102 223.827, 563.042 222.550 C 561.648 220.870, 560.709 220.625, 559.667 221.667 M 557.930 235.584 C 556.176 237.697, 557.926 240.500, 561 240.500 C 564.074 240.500, 565.824 237.697, 564.070 235.584 C 563.347 234.713, 561.965 234, 561 234 C 560.035 234, 558.653 234.713, 557.930 235.584 M 685.166 242.653 C 685.419 243.984, 686.561 244.587, 689.258 244.810 C 693.334 245.148, 694.374 243.530, 690.750 242.488 C 689.513 242.132, 687.671 241.609, 686.658 241.324 C 685.278 240.937, 684.904 241.270, 685.166 242.653 M 262 243.500 C 262 244.333, 262.889 245, 264 245 C 265.111 245, 266 244.333, 266 243.500 C 266 242.667, 265.111 242, 264 242 C 262.889 242, 262 242.667, 262 243.500 M 281 243.437 C 281 244.564, 282 245, 284.583 245 C 289.102 245, 288.757 242.639, 284.173 242.187 C 281.828 241.955, 281 242.281, 281 243.437 M 329.750 242.758 C 326.875 243.397, 327.769 245, 331 245 C 332.650 245, 334 244.598, 334 244.107 C 334 242.929, 331.934 242.273, 329.750 242.758 M 437.667 242.667 C 436.121 244.212, 437.247 245, 441 245 C 443.200 245, 445 244.598, 445 244.107 C 445 242.375, 439.114 241.219, 437.667 242.667 M 804.667 242.667 C 803.307 244.026, 804.072 245, 806.500 245 C 809.293 245, 809.853 243.541, 807.418 242.607 C 805.460 241.855, 805.478 241.855, 804.667 242.667 M 256 247.500 C 256 248.325, 256.113 249.003, 256.250 249.006 C 257.779 249.041, 268.685 251.107, 271.870 251.965 C 274.928 252.789, 276 253.586, 276 255.039 C 276 257.244, 278.882 257.718, 280.776 255.824 C 281.677 254.923, 283.233 255.297, 287.435 257.423 C 290.451 258.949, 293.442 260.828, 294.082 261.599 C 294.722 262.369, 295.764 263, 296.399 263 C 298.684 263, 312.308 278.021, 316.500 285.162 C 325.069 299.757, 334.183 318.895, 344.975 344.950 C 347.607 351.302, 355.035 369.100, 361.484 384.500 C 367.932 399.900, 376.029 419.250, 379.478 427.500 C 392.276 458.119, 401.393 479.669, 404.015 485.500 C 405.499 488.800, 408.627 496.113, 410.967 501.750 C 414.529 510.335, 415.575 512, 417.410 512 C 418.614 512, 420.140 511.460, 420.800 510.800 C 421.460 510.140, 422 509.933, 422 510.339 C 422 510.745, 422.908 510.232, 424.017 509.199 C 425.126 508.165, 427.180 506.706, 428.582 505.956 C 430.752 504.795, 431.261 504.804, 432.011 506.017 C 432.495 506.801, 433.240 507.093, 433.667 506.667 C 434.093 506.240, 433.781 505.482, 432.972 504.983 C 431.788 504.251, 432.469 503.093, 436.463 499.037 C 439.192 496.267, 441.834 494, 442.335 494 C 442.835 494, 442.685 494.675, 442 495.500 C 441.315 496.325, 441.190 497, 441.723 497 C 443.107 497, 446.125 493.459, 445.378 492.712 C 445.034 492.367, 449.983 486.742, 456.376 480.211 C 465.337 471.057, 468 467.725, 468 465.668 C 468 464.201, 467.550 463, 467 463 C 466.450 463, 466 462.325, 466 461.500 C 466 460.675, 466.450 460, 467 460 C 467.550 460, 468 459.105, 468 458.012 C 468 456.546, 467.409 456.086, 465.750 456.262 C 463.694 456.480, 463.094 455.252, 458.781 442 C 456.186 434.025, 453.642 426.600, 453.128 425.500 C 452.615 424.400, 450.783 419.225, 449.058 414 C 447.332 408.775, 445.517 403.600, 445.024 402.500 C 444.531 401.400, 442.248 394.875, 439.951 388 C 437.654 381.125, 435.168 374.150, 434.425 372.500 C 433.683 370.850, 431.963 366.125, 430.603 362 C 426.146 348.476, 423.036 339.534, 422.083 337.500 C 421.252 335.727, 417.317 323.617, 412.589 308.281 C 408.911 296.352, 409.597 280.631, 414.188 271.631 C 416.349 267.396, 421.845 261.993, 429.603 256.477 C 433.096 253.994, 435.566 253, 438.247 253 C 440.311 253, 442 253.450, 442 254 C 442 254.550, 442.723 255, 443.607 255 C 444.650 255, 445.005 254.454, 444.617 253.445 C 443.972 251.764, 449.165 249, 452.968 249 C 454.108 249, 455 248.341, 455 247.500 C 455 246.177, 443.278 246, 355.500 246 C 267.722 246, 256 246.177, 256 247.500 M 557.398 248.310 C 554.465 251.366, 555.195 259.093, 558.538 260.376 C 559.342 260.685, 560 261.851, 560 262.969 C 560 264.086, 560.450 265, 561 265 C 561.550 265, 562 264.264, 562 263.365 C 562 262.465, 563.125 260.687, 564.500 259.412 C 567.819 256.337, 567.648 253.201, 563.945 249.250 C 560.390 245.457, 560.168 245.425, 557.398 248.310 M 673 247.421 C 673 248.202, 674.237 249.071, 675.750 249.352 C 677.263 249.633, 681.639 250.414, 685.475 251.087 C 689.311 251.760, 694.394 253.171, 696.771 254.223 C 700.248 255.761, 700.972 256.512, 700.479 258.067 C 699.796 260.217, 701.847 260.753, 703.693 258.907 C 705.271 257.329, 707.927 259.012, 713.312 265.002 C 719.201 271.552, 721.476 278.121, 721.452 288.500 C 721.419 302.362, 719.936 306.805, 675.058 427.500 L 659.069 470.500 675.907 487.163 C 691.174 502.273, 692.599 503.973, 691.182 505.390 C 690.322 506.249, 689.940 507.274, 690.333 507.667 C 690.726 508.060, 691.774 507.655, 692.661 506.768 C 694.447 504.982, 695.996 505.515, 701.323 509.750 C 702.880 510.988, 704.692 512, 705.351 512 C 706.429 512, 715 495.055, 715 492.924 C 715 492.440, 716.523 488.771, 718.384 484.772 C 720.245 480.772, 722.092 475.987, 722.488 474.138 C 722.884 472.288, 724.772 469.044, 726.684 466.928 C 729.217 464.124, 729.984 462.525, 729.510 461.033 C 729.148 459.890, 729.554 457.596, 730.430 455.839 C 731.294 454.109, 732 452.273, 732 451.761 C 732 451.248, 733.312 448.055, 734.916 444.664 C 738.401 437.298, 739.757 434.176, 744.322 423 C 750.139 408.760, 751.283 406.002, 753.965 399.750 C 754.496 398.512, 756.570 393.450, 758.573 388.500 C 760.577 383.550, 762.997 377.700, 763.950 375.500 C 764.904 373.300, 766.277 369.925, 767.002 368 C 767.727 366.075, 768.698 364.072, 769.160 363.550 C 769.622 363.028, 770 362.028, 770 361.330 C 770 360.631, 771.125 357.600, 772.500 354.594 C 773.875 351.588, 775 348.886, 775 348.589 C 775 348.293, 776.284 345.226, 777.852 341.775 C 779.421 338.324, 781.918 332.350, 783.401 328.500 C 784.884 324.650, 787.157 319.250, 788.453 316.500 C 789.748 313.750, 792.031 308.800, 793.526 305.500 C 800.496 290.115, 817.394 266, 821.205 266 C 821.770 266, 824.379 264.424, 827.003 262.498 C 829.627 260.571, 834.863 257.858, 838.637 256.469 C 842.412 255.079, 846.406 253.486, 847.513 252.929 C 848.620 252.372, 852.952 251.321, 857.139 250.594 C 865.098 249.211, 867 248.507, 867 246.941 C 867 246.359, 829.944 246, 770 246 C 686.856 246, 673 246.203, 673 247.421 M 559.949 275.771 C 559.311 277.570, 557.919 279.508, 556.854 280.078 C 554.982 281.080, 555.003 281.214, 557.459 284.134 C 558.857 285.795, 560 287.794, 560 288.577 C 560 289.360, 560.450 290, 561 290 C 561.550 290, 562 289.585, 562 289.077 C 562 288.569, 563.179 286.752, 564.621 285.039 C 567.056 282.145, 567.127 281.797, 565.621 280.133 C 564.729 279.148, 564 277.901, 564 277.362 C 564 276.823, 563.349 275.509, 562.554 274.441 C 561.170 272.583, 561.059 272.639, 559.949 275.771 M 559.494 280.009 C 558.702 281.292, 559.844 285, 561.032 285 C 561.526 285, 562.374 284.169, 562.918 283.153 C 564.364 280.451, 561.083 277.438, 559.494 280.009 M 560 357.500 C 560 395.833, 560.345 416, 561 416 C 561.655 416, 562 395.833, 562 357.500 C 562 319.167, 561.655 299, 561 299 C 560.345 299, 560 319.167, 560 357.500 M 525 345.095 C 525 345.697, 525.878 349.184, 526.951 352.845 C 528.025 356.505, 532.342 372.325, 536.545 388 C 540.749 403.675, 544.371 416.687, 544.594 416.917 C 546.160 418.524, 545.653 414.654, 542.950 404.379 C 541.231 397.846, 539.244 390.250, 538.534 387.500 C 537.824 384.750, 535.103 374.850, 532.488 365.500 C 529.872 356.150, 527.515 347.488, 527.249 346.250 C 526.762 343.976, 525 343.072, 525 345.095 M 595.655 345 C 594.176 348.840, 577 413.358, 577 415.074 C 577 415.903, 577.345 416.044, 577.921 415.450 C 579.230 414.100, 597.249 346.216, 596.693 344.729 C 596.366 343.856, 596.066 343.934, 595.655 345 M 510.685 377.700 C 510.388 378.181, 514.327 387.108, 519.438 397.537 C 524.550 407.967, 529.048 417.512, 529.433 418.750 C 529.819 419.988, 530.585 421, 531.135 421 C 532.525 421, 531.426 417.713, 527.289 409.500 C 525.350 405.650, 521.311 397.100, 518.315 390.500 C 512.644 378.011, 511.588 376.240, 510.685 377.700 M 600.657 397.448 C 590.894 418.121, 589.674 421.346, 592.500 419 C 593.325 418.315, 594 417.213, 594 416.550 C 594 415.887, 597.770 407.730, 602.378 398.422 C 611.239 380.524, 612.694 377, 611.224 377 C 610.724 377, 605.968 386.202, 600.657 397.448 M 502 404.514 C 502 405.080, 514.370 421.369, 517.127 424.433 C 517.589 424.947, 518.231 425.102, 518.554 424.779 C 518.878 424.456, 515.710 419.761, 511.516 414.346 C 504.522 405.316, 502 402.711, 502 404.514 M 610.701 414.136 C 606.411 419.690, 603.183 424.516, 603.528 424.861 C 603.872 425.205, 605.357 424.024, 606.827 422.235 C 608.297 420.446, 610.089 418.986, 610.809 418.991 C 611.529 418.996, 611.840 418.550, 611.500 418 C 611.160 417.451, 612.934 414.335, 615.441 411.076 C 617.949 407.818, 620 404.893, 620 404.576 C 620 402.722, 617.652 405.135, 610.701 414.136 M 545.500 426.090 C 520.569 429.692, 494.581 444.450, 469.281 469.373 C 455.601 482.850, 448.195 490.518, 448.529 490.857 C 448.723 491.054, 455.321 485.269, 463.191 478.002 C 482.598 460.082, 493.873 451.684, 507 445.375 C 510.025 443.921, 513.175 442.348, 514 441.881 C 517.845 439.700, 522.810 437.789, 526 437.261 C 527.925 436.943, 530.400 436.104, 531.500 435.396 C 535.212 433.008, 547.415 431.500, 563 431.503 C 579.605 431.507, 587.217 432.783, 590.286 436.077 C 591.544 437.427, 593.426 438, 596.602 438 C 601.041 438, 604.850 439.443, 618.500 446.296 C 629.938 452.039, 643.996 462.729, 664.015 480.909 C 672.532 488.644, 679.841 494.979, 680.258 494.986 C 680.676 494.994, 680.455 494.100, 679.768 493 C 679.081 491.900, 678.134 491, 677.664 491 C 677.195 491, 670.215 484.587, 662.155 476.750 C 640.457 455.652, 627.215 445.541, 609.861 436.824 C 605.597 434.682, 601.449 431.808, 600.474 430.320 C 598.880 427.887, 598.618 427.802, 597.487 429.349 C 596.463 430.749, 595.751 430.856, 593.397 429.961 C 583.465 426.185, 558.697 424.183, 545.500 426.090 M 542.100 443.543 C 519.805 448.393, 496.483 460.743, 474.500 479.343 C 471.200 482.135, 469.527 483.267, 470.783 481.860 C 472.807 479.592, 472.892 479.155, 471.533 478.028 C 470.690 477.328, 470 476.098, 470 475.294 C 470 473.182, 467.727 474.252, 467.394 476.520 C 467.240 477.572, 467.544 478.950, 468.069 479.583 C 468.702 480.346, 468.499 481.171, 467.467 482.028 C 466.610 482.739, 466.132 483.902, 466.405 484.612 C 467.018 486.210, 459.571 493.028, 446.742 502.614 C 437.360 509.625, 427.543 515.092, 421.750 516.533 C 418.154 517.427, 418.255 518.677, 421.989 519.497 C 425.664 520.305, 426.837 521.952, 424.619 523.193 C 423.706 523.705, 423.219 524.545, 423.538 525.061 C 423.857 525.578, 423.416 526, 422.559 526 C 421.702 526, 421 526.204, 421 526.452 C 421 526.701, 424.603 535.363, 429.006 545.700 C 433.409 556.038, 436.559 564.647, 436.006 564.831 C 434.459 565.347, 434.813 566.815, 436.573 567.177 C 437.560 567.380, 440.571 573.459, 444.659 583.500 C 448.242 592.300, 451.542 600.214, 451.993 601.087 C 452.444 601.960, 456.051 610.510, 460.008 620.087 C 463.966 629.664, 468.455 640.425, 469.984 644 C 485.090 679.310, 491.075 694.363, 490.551 695.727 C 490.183 696.688, 490.903 698.358, 492.357 699.913 C 495.349 703.113, 505.423 726.359, 504.020 726.827 C 502.773 727.242, 502.647 732, 503.883 732 C 504.369 732, 505.044 733.013, 505.383 734.250 C 505.892 736.105, 506.167 736.239, 506.953 735.016 C 507.705 733.847, 508.252 734.377, 509.533 737.516 C 510.428 739.707, 512.219 743.852, 513.514 746.726 C 515.311 750.717, 515.760 753.141, 515.411 756.976 C 515.153 759.821, 515.369 762, 515.910 762 C 516.435 762, 517.142 762.871, 517.480 763.937 C 517.818 765.002, 519.005 766.014, 520.117 766.187 C 521.662 766.426, 523.329 769.332, 527.179 778.500 C 529.951 785.100, 532.718 791.400, 533.329 792.500 C 533.939 793.600, 534.481 796.300, 534.533 798.500 C 534.585 800.700, 534.711 807.814, 534.814 814.309 C 534.933 821.883, 535.359 825.896, 536 825.500 C 536.550 825.160, 537 821.759, 537 817.941 C 537 812.793, 537.348 811, 538.345 811 C 540.868 811, 542.800 814.502, 551.400 834.663 L 560 854.826 559.983 915.663 C 559.964 981.454, 559.772 984.265, 554.540 995.324 C 552.164 1000.345, 546.342 1006.851, 542.892 1008.339 C 541.795 1008.812, 541.904 1009.211, 543.404 1010.220 C 548.748 1013.813, 551.951 1017.500, 554.328 1022.796 C 557.892 1030.739, 560 1041.428, 560 1051.565 C 560 1058.667, 559.684 1060.316, 558 1062 C 555.509 1064.491, 555.446 1067.189, 557.829 1069.345 C 559.977 1071.289, 563.107 1071.493, 564.800 1069.800 C 566.716 1067.884, 566.247 1063.171, 564 1061.768 C 562.430 1060.788, 562 1059.436, 562 1055.483 C 562 1046.817, 564.020 1033.775, 566.445 1026.786 C 568.844 1019.872, 574.177 1012, 576.462 1012 C 577.173 1012, 578.373 1011.252, 579.128 1010.337 C 580.273 1008.950, 580.277 1008.600, 579.153 1008.222 C 576.414 1007.300, 570.819 1001.566, 568.784 997.595 C 567.631 995.343, 565.776 990.350, 564.663 986.500 C 562.751 979.884, 562.620 976.132, 562.263 918.040 C 561.988 873.166, 562.197 855.895, 563.036 854.040 C 563.668 852.643, 564.818 850.226, 565.593 848.669 C 566.367 847.112, 567 845.376, 567 844.812 C 567 844.248, 568.387 840.797, 570.082 837.143 C 571.777 833.489, 574.477 827.667, 576.082 824.205 C 577.687 820.743, 579.014 817.368, 579.032 816.705 C 579.085 814.673, 581.622 812, 583.496 812 C 585.023 812, 585.186 811.375, 584.661 807.544 C 584.311 804.991, 584.472 802.826, 585.037 802.477 C 585.683 802.078, 586.011 827.623, 585.987 876.398 L 585.951 950.929 582.614 952.513 C 576.455 955.435, 575.208 962.362, 579.981 967.135 C 582.506 969.660, 583.612 970.070, 587.199 969.808 C 590.764 969.549, 591.808 968.946, 593.790 966 C 596.807 961.515, 596.159 957.550, 591.752 953.541 L 588.500 950.582 588 873.541 C 587.492 795.243, 587.515 794.583, 590.954 789 C 591.462 788.175, 593.090 784.125, 594.573 780 C 596.055 775.875, 598.382 771.299, 599.743 769.831 C 601.142 768.324, 601.902 766.651, 601.491 765.986 C 601.091 765.339, 601.218 763.840, 601.772 762.655 C 602.327 761.470, 604.260 756.900, 606.068 752.500 C 610.063 742.782, 610.767 741.791, 613.142 742.545 C 614.800 743.071, 614.889 742.838, 613.964 740.405 C 613.247 738.519, 613.247 737.353, 613.963 736.637 C 614.679 735.921, 615 735.990, 615 736.859 C 615 737.551, 615.501 737.808, 616.114 737.429 C 616.786 737.014, 617.018 735.172, 616.699 732.790 C 616.104 728.354, 617.992 722.798, 621.318 719.199 C 622.488 717.933, 623.543 715.376, 623.662 713.516 C 623.781 711.656, 625.054 707.517, 626.492 704.317 C 631.190 693.861, 631.130 694.002, 639.548 673.500 C 642.709 665.800, 645.679 659.073, 646.148 658.550 C 646.617 658.028, 647 657.006, 647 656.280 C 647 655.554, 648.771 651.256, 650.936 646.730 C 653.101 642.203, 655.626 636.250, 656.547 633.500 C 657.469 630.750, 659.477 625.958, 661.010 622.851 C 662.544 619.744, 664.801 614.344, 666.026 610.851 C 667.251 607.358, 669.471 602.018, 670.959 598.984 C 672.448 595.951, 673.970 592.256, 674.342 590.774 C 674.714 589.292, 676.766 584.349, 678.901 579.790 C 681.037 575.230, 683.536 569.250, 684.454 566.500 C 685.372 563.750, 687.268 559.025, 688.666 556 C 694.607 543.153, 700.887 526.559, 699.947 526.193 C 699.513 526.024, 696.871 527.045, 694.076 528.461 C 690.657 530.194, 688.177 530.832, 686.497 530.410 C 684.161 529.824, 683.474 530.558, 683.870 533.214 C 683.928 533.607, 683.306 533.671, 682.488 533.357 C 681.576 533.007, 681 533.370, 681 534.292 C 681 535.121, 677.022 538.761, 672.160 542.381 C 663.875 548.549, 663.153 548.885, 660.668 547.731 C 659.209 547.054, 658.012 546.251, 658.008 545.946 C 657.990 544.648, 665.193 538.742, 674.455 532.460 C 684.788 525.452, 693.583 521, 697.094 521 C 699.419 521, 703 519.295, 703 518.187 C 703 517.779, 700.022 516.148, 696.383 514.562 C 686.164 510.110, 677.064 503.683, 657.500 487.101 C 637.689 470.310, 627.526 462.819, 616.436 456.837 C 611.474 454.161, 609.280 452.434, 609.642 451.490 C 610.584 449.036, 608.985 447.703, 607.122 449.389 C 605.613 450.755, 604.792 450.673, 599.014 448.581 C 595.477 447.300, 592.415 445.746, 592.209 445.126 C 592.002 444.507, 591.394 444, 590.858 444 C 590.321 444, 590.160 444.450, 590.500 445 C 591.277 446.258, 591.451 446.279, 585.500 444.399 C 578.518 442.194, 550.816 441.648, 542.100 443.543 M 563 448.796 C 563 449.832, 568.998 451.336, 569.826 450.507 C 570.598 449.735, 569.806 449.299, 566.250 448.537 C 564.367 448.134, 563 448.243, 563 448.796 M 538 451.857 C 519.440 459.128, 507.092 472.242, 500.523 491.658 C 496.879 502.428, 496.035 517.519, 498.458 528.570 C 504.474 556.004, 523.084 574.560, 549.591 579.555 C 562.745 582.033, 578.312 579.990, 589.283 574.346 C 594.217 571.808, 591.117 570.974, 585.681 573.378 C 577.707 576.904, 570.408 578.342, 560.500 578.341 C 533.905 578.335, 511.535 561.520, 501.851 534.254 C 498.942 526.063, 498.210 507.811, 500.437 499 C 501.340 495.425, 502.174 491.825, 502.290 491 C 502.405 490.175, 502.774 489.275, 503.108 489 C 503.443 488.725, 505.395 485.350, 507.445 481.500 C 514.437 468.374, 528.059 457.392, 543.313 452.586 C 544.311 452.271, 544.847 451.561, 544.504 451.007 C 543.703 449.710, 543.368 449.753, 538 451.857 M 583 452.927 C 583 453.436, 585.541 455.017, 588.648 456.439 C 591.754 457.861, 596.366 460.507, 598.898 462.319 C 605.686 467.178, 608.177 467.586, 603 462.991 C 598.668 459.147, 586.381 452, 584.104 452 C 583.497 452, 583 452.417, 583 452.927 M 503.511 464.109 C 497.339 468.052, 495.654 470, 498.417 470 C 499.288 470, 500 470.450, 500 471 C 500 471.550, 500.337 471.994, 500.750 471.987 C 501.977 471.967, 511.080 461.163, 510.257 460.705 C 509.841 460.473, 506.805 462.005, 503.511 464.109 M 618 467.378 C 618 468.135, 618.607 469.259, 619.348 469.874 C 620.373 470.724, 621.093 470.554, 622.350 469.165 C 623.260 468.160, 623.703 467.037, 623.336 466.669 C 622.098 465.432, 618 465.976, 618 467.378 M 628.371 474.476 C 628.049 475.314, 627.159 476, 626.393 476 C 624.426 476, 624.653 477.952, 627.336 484.126 C 628.622 487.082, 630.240 491.750, 630.934 494.500 C 632.956 502.516, 632.871 502.352, 634.354 501.121 C 635.085 500.514, 635.934 500.267, 636.239 500.572 C 637.177 501.510, 635.344 506.515, 634.157 506.257 C 633.399 506.092, 633.231 507.409, 633.635 510.351 C 633.962 512.737, 633.697 518.686, 633.047 523.572 C 632.215 529.823, 632.181 532.560, 632.932 532.811 C 634.838 533.446, 634.061 536.026, 631.692 536.927 C 630.178 537.503, 628.902 539.298, 627.981 542.152 C 627.209 544.543, 625.099 548.837, 623.293 551.694 C 621.280 554.879, 620.411 557.136, 621.046 557.528 C 621.615 557.880, 621.807 559.033, 621.472 560.089 C 621.078 561.331, 621.416 562.223, 622.431 562.612 C 623.294 562.943, 624 563.642, 624 564.166 C 624 564.690, 623.630 564.890, 623.178 564.610 C 622.726 564.331, 621.202 564.702, 619.790 565.434 C 618.379 566.166, 616.102 566.551, 614.732 566.289 C 611.509 565.673, 605.511 570.744, 606.905 572.907 C 607.639 574.046, 609.650 573.297, 617.436 568.984 C 628.005 563.129, 633.363 559.324, 656.020 541.588 C 671.676 529.333, 685.246 520.544, 690.189 519.458 C 693.895 518.645, 693.744 517.243, 689.750 515.389 C 685.102 513.231, 683.083 511.988, 677.230 507.679 C 674.375 505.577, 671.580 504.142, 671.019 504.488 C 670.459 504.835, 670 504.480, 670 503.701 C 670 502.922, 666.827 499.756, 662.948 496.666 C 656.722 491.706, 655.662 491.191, 653.893 492.274 C 652.217 493.300, 651.726 493.214, 650.895 491.750 C 650.348 490.788, 649.303 490, 648.573 490 C 647.842 490, 646.673 489.311, 645.974 488.469 C 644.926 487.206, 645.016 486.709, 646.488 485.632 C 648.118 484.441, 647.761 483.937, 642.387 479.840 C 635.103 474.288, 634.562 473.969, 631.461 473.407 C 629.822 473.110, 628.753 473.480, 628.371 474.476 M 479.178 481.176 C 473.730 485.700, 472.148 487.543, 472.995 488.378 C 473.840 489.210, 474.503 489.002, 475.557 487.573 C 476.339 486.513, 477.296 485.963, 477.684 486.351 C 478.072 486.738, 477.349 488.056, 476.077 489.278 C 474.550 490.746, 473.614 491.095, 473.318 490.306 C 472.666 488.567, 470.070 489.812, 465.272 494.165 C 462.947 496.274, 460.448 498, 459.719 498 C 458.989 498, 456.866 499.575, 455 501.500 C 453.134 503.425, 451.216 505, 450.737 505 C 450.258 505, 448.392 506.125, 446.589 507.500 C 444.786 508.875, 442.791 510, 442.156 510 C 440.666 510, 440.678 511.278, 442.183 512.783 C 442.834 513.434, 443.055 514.279, 442.673 514.660 C 442.291 515.042, 441.367 514.517, 440.619 513.494 C 439.308 511.701, 439.147 511.722, 436.185 514.067 C 434.494 515.405, 433.086 517.053, 433.055 517.730 C 433.025 518.406, 434.913 519.931, 437.250 521.119 C 444.649 524.879, 457.858 533.976, 472.177 545.173 C 488.602 558.017, 502.732 567.601, 503.747 566.586 C 504.147 566.186, 504.480 565.221, 504.487 564.441 C 504.494 563.661, 504.950 563.047, 505.500 563.077 C 506.050 563.107, 506.366 563.783, 506.203 564.579 C 506.040 565.375, 506.602 566.294, 507.453 566.620 C 508.304 566.947, 509 568.023, 509 569.013 C 509 570.252, 511.068 571.779, 515.649 573.923 C 519.306 575.634, 522.445 576.889, 522.623 576.710 C 522.802 576.532, 519.876 573.876, 516.122 570.809 C 504.256 561.115, 496.175 548.654, 491.797 533.299 C 487.541 518.371, 489.427 495.885, 496.017 482.967 C 498.519 478.063, 498.532 478.165, 495.250 476.839 C 488.811 474.236, 486.920 474.746, 479.178 481.176 M 613.523 476.964 C 613.195 477.493, 613.881 478.881, 615.047 480.047 C 616.213 481.213, 616.917 482.416, 616.613 482.720 C 616.308 483.025, 616.946 484.520, 618.030 486.041 C 619.113 487.563, 620 489.302, 620 489.904 C 620 490.507, 620.450 491, 621 491 C 622.271 491, 622.255 490.654, 620.839 487.547 C 620.201 486.146, 619.275 485, 618.780 485 C 618.286 485, 618.139 484.585, 618.453 484.077 C 618.952 483.268, 615.359 476, 614.460 476 C 614.272 476, 613.850 476.434, 613.523 476.964 M 567.500 500.685 C 564.806 505.641, 563.261 505.910, 562.446 501.564 C 561.545 496.763, 560 497.038, 560 502 C 560 505.956, 558.475 507.401, 557.362 504.500 C 556.377 501.934, 554.926 502.857, 555.617 505.611 C 556.200 507.934, 556.037 508.147, 554.136 507.543 C 551.898 506.833, 551.145 508.354, 553.128 509.579 C 553.900 510.056, 553.742 510.565, 552.628 511.188 C 550.699 512.268, 550.480 514.643, 552.250 515.292 C 553.250 515.658, 553.250 516.015, 552.250 517.075 C 550.281 519.162, 550.780 520.093, 553.500 519.411 C 556.420 518.678, 556.524 519.264, 554.489 525.030 C 552.502 530.663, 553.317 531.258, 555.951 526.097 C 558.420 521.256, 560 520.828, 560 525 C 560 526.650, 560.394 528, 560.875 528 C 561.356 528, 562.020 526.650, 562.350 525 C 563.038 521.559, 564.571 521.072, 565.500 524 C 566.164 526.092, 568 526.778, 568 524.934 C 568 524.348, 567.514 522.960, 566.919 521.849 C 565.226 518.686, 566.431 518.593, 572.588 521.412 C 575.732 522.851, 578.478 523.855, 578.690 523.643 C 578.902 523.431, 576.809 521.802, 574.038 520.024 C 568.237 516.302, 567.730 515, 572.083 515 C 575.909 515, 575.566 512.644, 571.673 512.184 C 568.066 511.757, 568.310 510.590, 572.553 507.967 C 576.349 505.621, 576.497 503.945, 572.748 505.741 C 566.430 508.769, 565.845 508.185, 569 502 C 571.194 497.700, 571.369 496.999, 570.250 497.003 C 569.837 497.004, 568.600 498.661, 567.500 500.685 M 624 513 C 624 516.300, 624.347 519, 624.770 519 C 625.194 519, 625.655 516.300, 625.795 513 C 625.947 509.407, 625.638 507, 625.024 507 C 624.439 507, 624 509.572, 624 513 M 623 524.411 C 623 525.737, 622.118 529.655, 621.040 533.118 C 619.123 539.279, 619.099 541.303, 620.965 539.433 C 622.108 538.288, 625 527.435, 625 524.290 C 625 523.030, 624.550 522, 624 522 C 623.450 522, 623 523.085, 623 524.411 M 429.200 524.200 C 426.924 526.476, 428.026 527.840, 435.750 532.305 C 440.012 534.769, 447.876 539.960, 453.224 543.839 C 458.572 547.719, 463.192 550.499, 463.490 550.016 C 463.789 549.533, 463.575 548.856, 463.016 548.510 C 461.713 547.705, 461.697 546, 462.992 546 C 464.716 546, 469.438 552.029, 469.470 554.270 C 469.492 555.830, 472.866 558.970, 481.797 565.739 C 488.560 570.866, 494.544 574.782, 495.095 574.441 C 495.744 574.040, 495.684 573.325, 494.926 572.411 C 494.063 571.371, 494.048 570.647, 494.869 569.658 C 495.747 568.600, 494.380 567.119, 488.408 562.658 C 481.164 557.247, 478 555.831, 478 558 C 478 559.497, 476.775 559.162, 474.101 556.936 C 471.850 555.061, 471.811 554.859, 473.467 553.648 C 475.068 552.477, 474.628 551.876, 468.724 547.179 C 461.632 541.535, 460.376 541.117, 458.422 543.750 C 457.196 545.402, 457.038 545.389, 455.580 543.500 C 454.661 542.309, 454.250 540.447, 454.565 538.898 C 455.034 536.590, 454.382 535.840, 448.797 532.267 C 434.319 523.004, 431.540 521.860, 429.200 524.200 M 610.521 553.972 C 608.514 556.706, 604.856 560.718, 602.392 562.886 C 599.929 565.054, 598.365 567.107, 598.916 567.448 C 600.724 568.566, 616 552.884, 616 549.910 C 616 547.791, 613.934 549.322, 610.521 553.972 M 652 550.337 C 650.625 551.066, 644.774 555.254, 638.998 559.644 C 633.222 564.033, 626.247 568.915, 623.498 570.492 C 620.749 572.068, 616.103 574.920, 613.173 576.828 C 610.243 578.736, 606.193 580.652, 604.173 581.087 C 602.153 581.522, 596 583.342, 590.500 585.132 C 580.605 588.352, 580.296 588.386, 561 588.382 C 545.529 588.379, 540.475 588.036, 536.538 586.723 C 533.809 585.813, 531.333 585.462, 531.035 585.943 C 530.283 587.161, 525.006 586.021, 524.975 584.633 C 524.962 584.010, 520.124 581.170, 514.225 578.322 C 505.151 573.941, 503.327 573.366, 502.377 574.589 C 501.759 575.384, 500.567 575.771, 499.728 575.449 C 496.657 574.271, 497.084 576.889, 500.286 578.867 C 503.237 580.692, 504.094 582.407, 508.443 595.203 C 511.115 603.066, 513.684 609.927, 514.151 610.450 C 514.618 610.972, 515 612.322, 515.001 613.450 C 515.001 614.577, 515.856 617.750, 516.901 620.500 C 518.601 624.974, 519.118 625.500, 521.816 625.500 C 525.924 625.500, 526.552 626.448, 524.083 628.917 C 521.654 631.346, 521.342 633.190, 523.500 632.362 C 525.540 631.579, 525.411 633.671, 523.348 634.825 C 521.883 635.645, 523.116 640.041, 534.234 673.625 C 543.666 702.114, 547.164 711.503, 548.352 711.511 C 549.220 711.518, 550.607 712.418, 551.434 713.511 C 553.445 716.174, 553.445 720, 551.433 720 C 549.611 720, 549.712 720.490, 554.181 733.250 C 559.999 749.864, 560 749.858, 560 670 C 560 622.667, 560.343 598, 561 598 C 561.658 598, 562 624, 562 674 C 562 715.800, 562.361 750, 562.803 750 C 563.494 750, 568 737.584, 568 735.679 C 568 735.306, 567.142 735, 566.094 735 C 564.680 735, 564.322 734.483, 564.710 733 C 565.299 730.747, 566.602 730.368, 567.292 732.250 C 568.537 735.645, 569.704 732.531, 593.453 662.500 C 608.639 617.720, 609.585 614.480, 607.797 613.375 C 607.048 612.911, 606.878 613.239, 607.299 614.336 C 607.693 615.365, 607.438 616, 606.631 616 C 605.829 616, 605.273 614.647, 605.192 612.500 C 605.045 608.570, 605.534 608.268, 608.177 610.661 C 609.187 611.574, 610.173 612.136, 610.369 611.911 C 610.566 611.685, 613.079 604.403, 615.953 595.729 C 620.645 581.574, 621.486 579.800, 624.169 578.413 C 627.111 576.891, 659 553.155, 659 552.486 C 659 551.854, 655.866 549, 655.179 549.006 C 654.805 549.010, 653.375 549.609, 652 550.337 M 521.250 599.056 C 517.179 605.759, 515.999 608.736, 517.875 607.577 C 518.813 606.998, 527 593.537, 527 592.575 C 527 590.647, 524.965 592.941, 521.250 599.056 M 595 592.473 C 595 593.718, 604.408 608, 605.228 608 C 606.439 608, 606.329 607.772, 601 599.230 C 597.142 593.045, 595 590.634, 595 592.473 M 531.665 609.200 C 528.586 617.010, 526.247 623.580, 526.467 623.800 C 527.466 624.799, 528.848 622.565, 531.412 615.801 C 532.935 611.785, 535.265 605.683, 536.590 602.239 C 539.296 595.209, 539.341 595, 538.132 595 C 537.654 595, 534.744 601.390, 531.665 609.200 M 584 596.413 C 584 597.100, 594.156 623.468, 594.594 623.917 C 594.817 624.146, 595.242 624.092, 595.537 623.796 C 595.832 623.501, 594.272 618.611, 592.068 612.929 C 589.553 606.444, 588.277 601.744, 588.640 600.300 C 589.063 598.614, 588.787 598, 587.608 598 C 586.724 598, 586 597.550, 586 597 C 586 596.450, 585.550 596, 585 596 C 584.450 596, 584 596.186, 584 596.413 M 572 598.286 C 572 600.373, 581.927 647.261, 582.488 647.821 C 584.082 649.415, 583.850 646.028, 581.704 636.359 C 580.378 630.387, 577.996 619.087, 576.409 611.250 C 574.823 603.413, 573.182 597, 572.763 597 C 572.343 597, 572 597.579, 572 598.286 M 548.769 599 C 548.041 600.675, 540.466 636.114, 539.417 642.750 C 539.047 645.087, 539.139 646.997, 539.622 646.993 C 540.105 646.989, 541.808 640.352, 543.408 632.243 C 545.007 624.134, 547.174 614.727, 548.223 611.338 C 549.936 605.805, 550.404 595.233, 548.769 599 M 505.683 746.650 C 504.618 747.715, 504.881 751, 506.031 751 C 507.510 751, 508.441 748.041, 507.316 746.916 C 506.794 746.394, 506.059 746.274, 505.683 746.650 M 505.639 757.694 C 504.403 758.930, 505.017 762, 506.500 762 C 507.325 762, 508 761.127, 508 760.059 C 508 757.972, 506.682 756.651, 505.639 757.694 M 614.404 758.389 C 613.752 760.088, 614.629 762, 616.059 762 C 617.320 762, 617.266 758.282, 615.993 757.496 C 615.439 757.153, 614.724 757.555, 614.404 758.389 M 614.404 779.389 C 613.752 781.088, 614.629 783, 616.059 783 C 617.320 783, 617.266 779.282, 615.993 778.496 C 615.439 778.153, 614.724 778.555, 614.404 779.389 M 505.386 791.437 C 504.598 793.490, 505.708 796.299, 506.993 795.504 C 507.547 795.162, 508 794.035, 508 793 C 508 790.536, 506.155 789.433, 505.386 791.437 M 614.386 791.437 C 613.598 793.490, 614.708 796.299, 615.993 795.504 C 616.547 795.162, 617 794.035, 617 793 C 617 790.536, 615.155 789.433, 614.386 791.437 M 534.927 855.691 C 534.843 882.170, 534.437 929.354, 534.179 942.750 C 534.045 949.675, 533.667 952, 532.674 952 C 530.105 952, 526.600 956.916, 526.600 960.521 C 526.600 965.971, 529.804 969.440, 535.167 969.797 C 538.900 970.046, 540.073 969.654, 542.316 967.411 C 546.038 963.689, 546.055 957.882, 542.354 954.452 C 540.899 953.104, 539.099 952, 538.354 952 C 537.231 952, 537 941.959, 537 893.059 C 537 854.844, 536.648 833.901, 536 833.500 C 535.345 833.095, 534.975 840.758, 534.927 855.691 M 614.507 848.977 C 613.822 851.136, 614.541 853, 616.059 853 C 617.277 853, 617.288 848.296, 616.072 847.544 C 615.562 847.229, 614.858 847.873, 614.507 848.977 M 505.683 848.650 C 504.618 849.715, 504.881 853, 506.031 853 C 507.510 853, 508.441 850.041, 507.316 848.916 C 506.794 848.394, 506.059 848.274, 505.683 848.650 M 505.683 857.650 C 504.618 858.715, 504.881 862, 506.031 862 C 507.510 862, 508.441 859.041, 507.316 857.916 C 506.794 857.394, 506.059 857.274, 505.683 857.650 M 504.676 869.402 C 504.048 871.038, 504.786 872, 506.667 872 C 507.400 872, 508 871.100, 508 870 C 508 867.726, 505.492 867.275, 504.676 869.402 M 614.380 869.452 C 614.074 870.251, 614.128 871.398, 614.500 872.001 C 615.478 873.582, 618.036 871.258, 617.334 869.427 C 616.626 867.584, 615.092 867.597, 614.380 869.452 M 504.676 880.402 C 504.048 882.038, 504.786 883, 506.667 883 C 507.400 883, 508 882.100, 508 881 C 508 878.726, 505.492 878.275, 504.676 880.402 M 505.042 890.450 C 503.993 891.713, 503.993 892.287, 505.042 893.550 C 506.204 894.950, 506.478 894.950, 507.878 893.550 C 509.279 892.150, 509.279 891.850, 507.878 890.450 C 506.478 889.050, 506.204 889.050, 505.042 890.450 M 614.139 890.332 C 613.325 891.314, 613.372 892.126, 614.320 893.422 C 615.484 895.015, 615.728 895.032, 616.914 893.603 C 618.262 891.980, 617.769 889, 616.154 889 C 615.654 889, 614.747 889.599, 614.139 890.332 M 613.360 900.364 C 610.042 903.675, 609.567 906.567, 611.949 908.949 C 614.488 911.488, 617.175 911.569, 619.345 909.171 C 621.746 906.518, 621.382 903.732, 618.250 900.801 L 615.500 898.228 613.360 900.364 M 503.600 901.495 C 500.524 904.346, 500.357 905.984, 502.831 909.040 C 504.241 910.781, 505.270 911.149, 507.302 910.639 C 512.465 909.343, 513.180 903.658, 508.561 900.632 C 506.357 899.188, 506.027 899.245, 503.600 901.495 M 530.200 956.200 C 527.622 958.778, 529.519 966.395, 533.015 967.505 C 536.163 968.504, 539.769 967.282, 541.510 964.625 C 543.194 962.055, 542.587 959, 540.393 959 C 539.627 959, 539 958.100, 539 957 C 539 955.351, 538.333 955, 535.200 955 C 533.110 955, 530.860 955.540, 530.200 956.200 M 585.823 958.946 C 586.236 963.268, 587.906 964.278, 591.742 962.525 C 594.396 961.312, 594.541 960.217, 592.443 957.223 C 591.483 955.852, 589.844 955, 588.167 955 C 585.603 955, 585.469 955.226, 585.823 958.946 M 581 963.800 C 581 964.790, 581.540 966.140, 582.200 966.800 C 583.951 968.551, 587 968.272, 587 966.360 C 587 964.581, 584.259 962.083, 582.250 962.032 C 581.563 962.014, 581 962.810, 581 963.800 M 557.625 994.922 C 556.639 997.665, 554.069 1001.912, 551.916 1004.358 C 549.762 1006.805, 548 1009.119, 548 1009.500 C 548 1009.881, 549.765 1012.199, 551.923 1014.650 C 554.081 1017.101, 556.668 1021.120, 557.673 1023.582 C 560.056 1029.418, 562.745 1029.302, 564.747 1023.275 C 565.519 1020.951, 568.114 1016.865, 570.515 1014.195 L 574.879 1009.341 571.890 1006.352 C 570.246 1004.708, 567.423 1000.468, 565.617 996.931 C 563.810 993.394, 561.677 990.373, 560.875 990.217 C 559.927 990.033, 558.793 991.674, 557.625 994.922 M 167 1118.487 C 167 1118.754, 168.568 1119.628, 170.485 1120.429 C 173.817 1121.822, 175.365 1124.171, 179.092 1133.500 C 179.531 1134.600, 180.767 1137.525, 181.837 1140 C 182.908 1142.475, 186.325 1150.800, 189.432 1158.500 C 198.001 1179.737, 198.864 1181.796, 200.549 1185 C 202.725 1189.138, 204.660 1188.605, 207.451 1183.097 C 208.853 1180.330, 210 1177.416, 210 1176.622 C 210 1175.827, 212.180 1170.075, 214.845 1163.839 C 217.511 1157.602, 220.502 1150.025, 221.493 1147 C 224.081 1139.100, 230.893 1123.804, 232.738 1121.750 C 233.602 1120.787, 235.140 1120, 236.155 1120 C 237.170 1120, 238 1119.550, 238 1119 C 238 1118.404, 234.167 1118, 228.500 1118 C 222.833 1118, 219 1118.404, 219 1119 C 219 1119.550, 219.605 1120, 220.345 1120 C 222.348 1120, 225 1123.347, 225 1125.874 C 225 1128.097, 208.326 1172.696, 206.851 1174.417 C 206.410 1174.932, 205.767 1174.494, 205.385 1173.417 C 205.011 1172.363, 203.895 1169.664, 202.905 1167.419 C 201.915 1165.175, 200.168 1160.900, 199.025 1157.919 C 197.881 1154.939, 196.516 1151.600, 195.991 1150.500 C 192.851 1143.917, 187 1128.250, 187 1126.427 C 187 1125.240, 187.900 1123.126, 189 1121.727 C 190.100 1120.329, 191 1118.918, 191 1118.592 C 191 1118.267, 185.600 1118, 179 1118 C 172.400 1118, 167 1118.219, 167 1118.487 M 286.638 1118.777 C 286.373 1119.205, 282.345 1130.343, 277.686 1143.527 C 263.520 1183.617, 262.891 1185, 258.845 1185 C 257.830 1185, 257 1185.450, 257 1186 C 257 1186.593, 260.667 1187, 266 1187 C 270.950 1187, 275 1186.581, 275 1186.070 C 275 1185.558, 273.988 1184.995, 272.750 1184.820 C 270.903 1184.557, 270.450 1183.784, 270.222 1180.500 C 269.836 1174.937, 272.123 1167.747, 274.685 1166.470 C 275.841 1165.893, 277.463 1164.861, 278.289 1164.175 C 279.329 1163.312, 282.950 1163.016, 290.040 1163.214 L 300.288 1163.500 303.665 1172.276 C 306.322 1179.179, 306.817 1181.473, 305.986 1183.026 C 305.405 1184.112, 304.270 1185, 303.465 1185 C 302.659 1185, 302 1185.450, 302 1186 C 302 1186.603, 306.167 1187, 312.500 1187 C 322.398 1187, 325.950 1185.957, 320.615 1184.618 C 318.196 1184.011, 314.825 1178.276, 313.409 1172.360 C 313.032 1170.787, 312.398 1169.050, 312 1168.500 C 311.602 1167.950, 310.956 1166.166, 310.565 1164.535 C 310.174 1162.904, 309.042 1159.754, 308.050 1157.535 C 307.058 1155.316, 305.649 1151.700, 304.919 1149.500 C 304.189 1147.300, 303.234 1145.072, 302.796 1144.550 C 302.358 1144.027, 301.997 1142.902, 301.994 1142.050 C 301.990 1141.197, 301.369 1139.314, 300.612 1137.864 C 299.855 1136.414, 297.773 1131.351, 295.985 1126.614 C 292.966 1118.612, 292.535 1118, 289.926 1118 C 288.382 1118, 286.902 1118.350, 286.638 1118.777 M 358 1119 C 358 1119.550, 358.649 1120, 359.443 1120 C 360.237 1120, 361.587 1121, 362.443 1122.223 C 364.739 1125.501, 364.793 1179, 362.500 1179 C 360.686 1179, 360.501 1180.665, 362.250 1181.254 C 363.870 1181.799, 361.416 1185, 359.378 1185 C 358.620 1185, 358 1185.458, 358 1186.017 C 358 1186.687, 366.776 1186.943, 383.706 1186.767 L 409.411 1186.500 410.096 1183 C 411.684 1174.883, 412.083 1170, 411.159 1170 C 410.629 1170, 409.762 1171.244, 409.232 1172.763 C 407.673 1177.237, 403.126 1181.884, 399.176 1183.041 C 397.154 1183.633, 390.550 1183.979, 384.500 1183.809 L 373.500 1183.500 373.235 1154.063 L 372.969 1124.627 376.181 1121.313 L 379.392 1118 368.696 1118 C 362.232 1118, 358 1118.396, 358 1119 M 447.316 1118.649 C 447.673 1119.006, 448.981 1119.805, 450.223 1120.424 C 452.698 1121.658, 454.016 1125.231, 451.828 1124.776 C 450.944 1124.592, 450.394 1125.798, 450.182 1128.383 C 449.920 1131.572, 450.144 1132.159, 451.432 1131.665 C 452.821 1131.131, 453 1133.181, 453 1149.671 C 453 1165.866, 452.784 1168.437, 451.338 1169.495 C 449.567 1170.790, 450.192 1174.617, 451.993 1173.504 C 453.452 1172.602, 453.270 1182.330, 451.800 1183.800 C 451.140 1184.460, 449.790 1185, 448.800 1185 C 447.810 1185, 447 1185.450, 447 1186 C 447 1187.313, 497.654 1187.370, 498.464 1186.058 C 498.784 1185.540, 499.511 1182.502, 500.079 1179.308 C 500.647 1176.114, 501.342 1172.713, 501.623 1171.750 C 502.625 1168.325, 500.273 1170.069, 498.455 1174.099 C 495.712 1180.183, 491.048 1183.297, 483.902 1183.813 C 479.958 1184.099, 478 1183.869, 478 1183.120 C 478 1182.504, 477.325 1182, 476.500 1182 C 475.675 1182, 475 1182.450, 475 1183 C 475 1183.550, 472.601 1184, 469.669 1184 C 462.267 1184, 461.865 1183.002, 462.218 1165.500 L 462.500 1151.500 469.177 1151.206 C 477.954 1150.819, 482.799 1152.746, 483.641 1156.956 C 484.845 1162.977, 486 1159.818, 486 1150.500 C 486 1145.275, 485.663 1141.010, 485.250 1141.022 C 484.837 1141.034, 483.825 1142.480, 483 1144.235 C 481.194 1148.078, 477.601 1149.223, 468.683 1148.796 L 462.500 1148.500 462.221 1135.301 C 461.880 1119.138, 461.504 1119.538, 476.415 1120.201 C 488.173 1120.725, 491.533 1122.028, 494.999 1127.408 L 497.500 1131.290 497.816 1126.975 C 497.989 1124.602, 497.868 1121.612, 497.547 1120.330 L 496.962 1118 471.814 1118 C 457.983 1118, 446.959 1118.292, 447.316 1118.649 M 539 1119 C 539 1119.550, 539.675 1120, 540.500 1120 C 541.325 1120, 542.900 1120.900, 544 1122 C 545.906 1123.906, 546 1125.333, 546 1152.277 C 546 1176.252, 545.763 1180.893, 544.443 1182.777 C 543.587 1184, 542.264 1185, 541.502 1185 C 540.741 1185, 539.840 1185.450, 539.500 1186 C 539.108 1186.635, 541.823 1187, 546.941 1187 C 554.510 1187, 557.480 1185.882, 553.012 1184.713 C 549.643 1183.832, 549 1179.647, 549 1158.590 C 549 1140.213, 549.172 1138.155, 550.829 1136.655 C 551.835 1135.745, 553.128 1135, 553.704 1135 C 554.279 1135, 557.619 1138.686, 561.125 1143.191 C 570.758 1155.568, 570.351 1154.872, 568.944 1156.567 C 567.400 1158.428, 568.480 1159.676, 570.316 1158.153 C 571.409 1157.246, 573.965 1159.956, 583.147 1171.757 C 589.453 1179.863, 595.375 1186.641, 596.306 1186.820 C 597.868 1187.121, 598 1184.757, 598 1156.441 L 598 1125.736 601.500 1122.435 C 603.425 1120.620, 605 1118.879, 605 1118.567 C 605 1118.255, 601.400 1118, 597 1118 C 592.333 1118, 589 1118.417, 589 1119 C 589 1119.550, 589.884 1120, 590.965 1120 C 592.045 1120, 593.395 1120.870, 593.965 1121.934 C 595.233 1124.304, 595.366 1155, 594.108 1155 C 593.618 1155, 592.907 1156.233, 592.529 1157.740 C 592.151 1159.247, 591.315 1160.830, 590.671 1161.258 C 589.859 1161.797, 590.344 1162.783, 592.250 1164.470 C 594.898 1166.814, 595.963 1170, 594.099 1170 C 593.355 1170, 583.687 1157.836, 559.809 1126.856 C 556.724 1122.853, 556.356 1121.403, 558.250 1120.708 C 559.228 1120.350, 559.237 1119.971, 558.292 1118.967 C 557.346 1117.962, 556.771 1117.946, 555.631 1118.891 C 554.643 1119.711, 553.971 1119.762, 553.530 1119.049 C 552.698 1117.703, 539 1117.657, 539 1119 M 640.991 1120.750 C 640.987 1122.263, 640.699 1125.862, 640.352 1128.750 C 639.916 1132.380, 640.073 1134, 640.861 1134 C 641.487 1134, 642 1133.303, 642 1132.450 C 642 1129.865, 644.955 1125, 646.526 1125 C 647.337 1125, 648 1124.601, 648 1124.114 C 648 1121.003, 663.127 1118.527, 665.800 1121.200 C 666.678 1122.078, 667 1130.195, 667 1151.477 C 667 1176.176, 666.766 1180.890, 665.443 1182.777 C 664.587 1184, 663.237 1185, 662.443 1185 C 661.649 1185, 661 1185.450, 661 1186 C 661 1186.603, 665.167 1187, 671.500 1187 C 677.833 1187, 682 1186.603, 682 1186 C 682 1185.450, 681.155 1185, 680.122 1185 C 676.139 1185, 675.960 1183.456, 676.235 1151.380 L 676.500 1120.500 684.331 1120.688 C 693.877 1120.917, 696.489 1122.384, 699.331 1129.110 C 700.467 1131.799, 701.702 1134, 702.076 1134 C 702.736 1134, 702.412 1127.821, 701.407 1121.250 L 700.909 1118 670.955 1118 L 641 1118 640.991 1120.750 M 739 1118.763 C 739 1119.182, 740.013 1119.970, 741.250 1120.513 L 743.500 1121.500 743.500 1152.500 L 743.500 1183.500 741.250 1184.487 C 737.006 1186.349, 739.013 1187, 749 1187 C 755 1187, 759 1186.600, 759 1186 C 759 1185.450, 758.100 1185, 757 1185 C 755.667 1185, 755 1184.333, 755 1183 C 755 1181.900, 755.450 1181, 756 1181 C 756.550 1181, 757 1178.750, 757 1176 C 757 1172.306, 756.622 1171, 755.555 1171 C 754.553 1171, 753.989 1172.457, 753.715 1175.750 C 753.498 1178.362, 753.519 1167.675, 753.763 1152 L 754.205 1123.500 756.603 1121.462 C 757.921 1120.342, 759 1119.104, 759 1118.712 C 759 1118.321, 754.500 1118, 749 1118 C 743.500 1118, 739 1118.343, 739 1118.763 M 795 1119 C 795 1119.550, 795.830 1120, 796.845 1120 C 797.860 1120, 799.435 1120.823, 800.345 1121.829 C 802.097 1123.765, 802.648 1130, 801.067 1130 C 799.246 1130, 798.788 1134.108, 800.410 1135.900 C 802.187 1137.864, 802.681 1148, 801 1148 C 800.450 1148, 800 1148.873, 800 1149.941 C 800 1151.009, 800.450 1152.160, 801 1152.500 C 802.339 1153.328, 802.308 1180.556, 800.965 1183.066 C 800.395 1184.130, 799.045 1185, 797.965 1185 C 796.884 1185, 796 1185.450, 796 1186 C 796 1186.578, 799.167 1187, 803.500 1187 C 810.319 1187, 811 1186.819, 811 1185.012 C 811 1183.546, 810.409 1183.086, 808.750 1183.262 L 806.500 1183.500 806.233 1160 C 805.981 1137.827, 806.073 1136.433, 807.868 1135.313 C 809.464 1134.317, 810.134 1134.514, 812.032 1136.534 C 813.936 1138.560, 814.087 1139.190, 812.989 1140.513 C 811.247 1142.612, 813.202 1144.907, 815.270 1143.191 C 816.345 1142.299, 817.851 1143.688, 822.562 1149.917 C 841.398 1174.820, 851.296 1187, 852.696 1187 C 853.567 1187, 854.877 1186.213, 855.608 1185.250 C 857.167 1183.197, 857.502 1171, 856 1171 C 855.436 1171, 855 1168.167, 855 1164.500 C 855 1160.833, 855.436 1158, 856 1158 C 856.550 1158, 857 1155.750, 857 1153 C 857 1150.250, 856.550 1148, 856 1148 C 855.450 1148, 855 1146.425, 855 1144.500 C 855 1142.575, 855.450 1141, 856 1141 C 856.556 1141, 857 1138.333, 857 1135 C 857 1131.667, 856.556 1129, 856 1129 C 853.698 1129, 855.098 1123.987, 858 1121.842 C 859.650 1120.622, 861 1119.259, 861 1118.812 C 861 1118.365, 857.400 1118, 853 1118 C 848.333 1118, 845 1118.417, 845 1119 C 845 1119.550, 845.810 1120, 846.800 1120 C 850.274 1120, 851 1122.094, 851 1132.117 C 851 1138.979, 850.633 1141.968, 849.750 1142.292 C 848.750 1142.658, 848.750 1143.015, 849.750 1144.075 C 851.034 1145.436, 851.644 1170, 850.394 1170 C 850.061 1170, 848.823 1168.798, 847.644 1167.330 C 844.665 1163.619, 820.006 1131.845, 814.240 1124.287 L 809.500 1118.073 802.250 1118.037 C 798.059 1118.015, 795 1118.422, 795 1119 M 920.063 1120.187 C 919.539 1121.459, 914.576 1135.325, 909.033 1151 C 903.490 1166.675, 898.133 1180.625, 897.127 1182 C 896.122 1183.375, 894.332 1184.644, 893.150 1184.820 C 891.967 1184.995, 891 1185.558, 891 1186.070 C 891 1186.581, 894.825 1187, 899.500 1187 C 907.448 1187, 910.564 1185.904, 906.005 1184.712 C 902.998 1183.925, 902.470 1181.170, 904.327 1175.943 C 905.247 1173.352, 906 1170.686, 906 1170.020 C 906 1169.354, 906.931 1167.502, 908.068 1165.904 L 910.136 1163 922.119 1163 L 934.102 1163 935.431 1166.250 C 937.847 1172.157, 938.233 1174.069, 936.950 1173.775 C 936.290 1173.624, 935.555 1174.028, 935.317 1174.673 C 935.079 1175.318, 935.905 1175.993, 937.151 1176.173 C 941.114 1176.745, 941.407 1185, 937.465 1185 C 936.659 1185, 936 1185.450, 936 1186 C 936 1186.603, 940.167 1187, 946.500 1187 C 952.310 1187, 957 1186.584, 957 1186.070 C 957 1185.558, 956.033 1184.995, 954.852 1184.820 C 953.671 1184.644, 952.336 1183.825, 951.886 1183 C 949.930 1179.413, 947 1171.985, 947 1170.614 C 947 1169.791, 946.550 1168.840, 946 1168.500 C 945.450 1168.160, 945 1167.189, 945 1166.342 C 945 1165.495, 944.272 1163.159, 943.381 1161.151 C 942.491 1159.143, 941.141 1156.082, 940.381 1154.349 C 939.622 1152.616, 939 1150.505, 939 1149.658 C 939 1148.811, 938.605 1147.874, 938.123 1147.576 C 937.641 1147.278, 936.724 1144.961, 936.086 1142.428 C 935.448 1139.894, 934.047 1135.949, 932.973 1133.661 C 931.898 1131.372, 930.227 1127.025, 929.260 1124 C 927.647 1118.961, 927.228 1118.474, 924.257 1118.187 C 921.651 1117.936, 920.828 1118.328, 920.063 1120.187 M 283.167 1137.750 C 282.670 1138.713, 281.948 1141.243, 281.563 1143.373 C 281.178 1145.503, 280.482 1147.978, 280.016 1148.873 C 277.508 1153.687, 275.967 1158.138, 276.507 1159.011 C 277.467 1160.564, 299.322 1160.308, 298.774 1158.750 C 293.899 1144.915, 291.220 1138.674, 290 1138.306 C 289.175 1138.057, 287.719 1137.437, 286.764 1136.927 C 284.426 1135.679, 284.211 1135.728, 283.167 1137.750 M 917.104 1138.402 C 916.615 1139.006, 915.526 1142.200, 914.683 1145.500 C 913.840 1148.800, 912.864 1152.232, 912.515 1153.127 C 912.062 1154.289, 912.577 1154.928, 914.321 1155.366 C 915.663 1155.703, 916.998 1156.883, 917.287 1157.989 C 917.739 1159.718, 918.643 1160, 923.740 1160 C 930.258 1160, 931.580 1159.404, 929.806 1157.266 C 928.900 1156.175, 928.911 1155.673, 929.853 1155.091 C 930.779 1154.519, 930.430 1152.525, 928.423 1146.917 C 926.963 1142.838, 925.341 1138.968, 924.819 1138.319 C 923.643 1136.856, 918.309 1136.913, 917.104 1138.402 M 807 1147.083 C 807 1150.909, 809.356 1150.566, 809.816 1146.673 C 810.041 1144.779, 809.677 1144, 808.566 1144 C 807.483 1144, 807 1144.951, 807 1147.083 M 917 1167 C 917 1167.550, 918.800 1168, 921 1168 C 923.200 1168, 925 1167.550, 925 1167 C 925 1166.450, 923.200 1166, 921 1166 C 918.800 1166, 917 1166.450, 917 1167 M 557.001 1232.123 C 550.533 1234.702, 547.873 1240.368, 550.348 1246.291 C 551.577 1249.231, 553.220 1250.484, 560.649 1254.145 C 567.293 1257.419, 569.711 1259.148, 570.387 1261.110 C 573.565 1270.325, 561.443 1275.631, 553.844 1268.350 C 552.280 1266.852, 551 1265.062, 551 1264.372 C 551 1263.682, 550.550 1262.840, 550 1262.500 C 549.383 1262.119, 549 1263.838, 549 1266.985 C 549 1270.531, 549.381 1272.013, 550.250 1271.842 C 550.938 1271.707, 553.875 1272.185, 556.777 1272.905 C 563.530 1274.578, 568.156 1273.680, 572.521 1269.847 C 575.402 1267.318, 576 1266.106, 576 1262.801 C 576 1256.429, 573.456 1253.312, 565 1249.323 C 560.875 1247.377, 556.712 1245.088, 555.750 1244.237 C 552.998 1241.804, 553.544 1237.713, 556.960 1235.188 C 560.448 1232.609, 563.017 1232.440, 567.050 1234.526 C 569.956 1236.028, 570.499 1237.309, 570.118 1241.750 C 570.011 1242.987, 570.339 1244, 570.846 1244 C 571.981 1244, 572.968 1240.518, 572.986 1236.450 C 572.999 1233.535, 572.743 1233.347, 567.190 1232.200 C 560.451 1230.808, 560.302 1230.807, 557.001 1232.123 M 495 1250.235 C 490.707 1262.298, 487.686 1269.264, 486.104 1270.750 L 483.708 1273 488.476 1273 C 492.646 1273, 493.085 1272.807, 491.974 1271.468 C 490.950 1270.235, 490.947 1269.114, 491.954 1265.718 C 493.803 1259.489, 494.503 1259, 501.555 1259 C 507.155 1259, 507.943 1259.245, 508.555 1261.173 C 508.934 1262.368, 510.090 1264.253, 511.122 1265.362 C 513.278 1267.676, 513.530 1270.070, 511.800 1271.800 C 510.867 1272.733, 512.033 1272.995, 517.050 1272.978 C 523.290 1272.956, 523.433 1272.899, 521.440 1271.228 C 520.307 1270.277, 517.859 1265.450, 516 1260.500 C 502.504 1224.562, 503.894 1225.242, 495 1250.235 M 603.800 1233.200 C 604.645 1234.045, 605 1239.756, 605 1252.500 C 605 1265.244, 604.645 1270.955, 603.800 1271.800 C 602.867 1272.733, 603.783 1273, 607.922 1273 C 612.377 1273, 613.055 1272.771, 612.080 1271.597 C 610.552 1269.755, 611.044 1253.812, 612.646 1253.282 C 613.276 1253.073, 616.476 1256.187, 619.755 1260.201 C 624.745 1266.309, 625.538 1267.790, 624.609 1269.278 C 622.959 1271.924, 625.352 1272.972, 633 1272.953 C 638.857 1272.938, 639.313 1272.795, 637.608 1271.504 C 636.568 1270.717, 635.432 1269.943, 635.085 1269.786 C 634.033 1269.310, 618 1249.823, 618 1249.022 C 618 1248.611, 621.814 1244.614, 626.477 1240.138 L 634.953 1232 630.905 1232 C 626.396 1232, 623.457 1234.142, 624.442 1236.709 C 624.890 1237.876, 623.223 1240.239, 618.818 1244.684 C 615.375 1248.158, 612.207 1251, 611.779 1251 C 610.560 1251, 610.867 1245.533, 612.158 1244.242 C 613.034 1243.366, 613.023 1242.732, 612.109 1241.631 C 611.289 1240.643, 611.238 1239.971, 611.951 1239.530 C 612.528 1239.174, 613 1237.334, 613 1235.441 L 613 1232 607.800 1232 C 603.756 1232, 602.867 1232.267, 603.800 1233.200 M 500.252 1243.217 C 498.911 1244.859, 495.846 1255.180, 496.505 1255.838 C 496.778 1256.112, 499.477 1256.541, 502.501 1256.792 C 508.898 1257.322, 508.912 1257.287, 505.691 1248.575 C 503.410 1242.407, 502.026 1241.044, 500.252 1243.217 M 267.431 1248.462 C 266.294 1249.700, 264.719 1250.927, 263.933 1251.189 C 262.914 1251.529, 263.627 1252.726, 266.414 1255.354 L 270.325 1259.043 272.440 1257.057 C 274.449 1255.169, 276.466 1255.040, 313.027 1254.467 C 334.187 1254.135, 374.636 1253.782, 402.913 1253.682 C 443.022 1253.540, 454.419 1253.225, 454.747 1252.250 C 455.081 1251.256, 436.742 1251, 365.258 1251 L 275.349 1251 273 1248.500 C 270.228 1245.550, 270.109 1245.549, 267.431 1248.462 M 850.009 1247.489 C 849.329 1248.308, 848.422 1248.761, 847.991 1248.495 C 847.561 1248.229, 846.952 1248.681, 846.638 1249.500 C 846.139 1250.801, 834.712 1251.022, 756.283 1251.245 C 697.055 1251.413, 666.585 1251.840, 666.750 1252.500 C 666.913 1253.153, 698.411 1253.674, 757.481 1254 L 847.962 1254.500 849.538 1256.750 C 851.660 1259.780, 853.038 1259.589, 856.751 1255.750 L 859.894 1252.500 856.014 1249.250 C 851.537 1245.500, 851.636 1245.529, 850.009 1247.489 M 277.313 1309.199 C 268.890 1311.381, 267.419 1322.863, 274.990 1327.335 C 278.924 1329.659, 283.294 1329.451, 285.595 1326.830 C 287.406 1324.768, 287.409 1324.694, 285.657 1325.335 C 278.626 1327.905, 275.628 1326.828, 273.917 1321.117 C 272.190 1315.354, 274.233 1311.606, 279.327 1311.185 C 281.424 1311.012, 283.794 1311.414, 284.594 1312.078 C 286.461 1313.628, 287.654 1312.493, 286.112 1310.635 C 284.540 1308.741, 281.190 1308.194, 277.313 1309.199 M 646.284 1308.775 C 645.065 1308.970, 642.928 1310.485, 641.534 1312.142 C 636.238 1318.435, 639.568 1327.596, 647.540 1328.665 C 651.027 1329.133, 652 1328.802, 654.784 1326.202 C 657.463 1323.699, 657.996 1322.471, 657.978 1318.849 C 657.965 1316.288, 657.244 1313.575, 656.224 1312.251 C 654.340 1309.803, 649.793 1308.213, 646.284 1308.775 M 299 1318.500 L 299 1328 305 1328 C 308.796 1328, 311 1327.585, 311 1326.869 C 311 1326.143, 309.790 1325.935, 307.618 1326.287 C 305.709 1326.597, 303.749 1326.349, 303.118 1325.718 C 302.485 1325.085, 302 1321.215, 302 1316.800 C 302 1310.533, 301.705 1309, 300.500 1309 C 299.272 1309, 299 1310.722, 299 1318.500 M 327.636 1309.780 C 326.671 1311.341, 321 1326.079, 321 1327.026 C 321 1327.562, 321.900 1328, 323 1328 C 324.111 1328, 325 1327.333, 325 1326.500 C 325 1325.415, 326.115 1325, 329.031 1325 C 331.692 1325, 333.258 1325.510, 333.638 1326.500 C 333.955 1327.325, 334.841 1328, 335.607 1328 C 337.338 1328, 337.433 1328.658, 334.586 1320.996 C 330.506 1310.014, 328.996 1307.579, 327.636 1309.780 M 348.500 1318.500 C 348.500 1326.623, 348.737 1328, 350.133 1328 C 351.032 1328, 352.002 1327.100, 352.290 1326 C 352.913 1323.617, 356.785 1323.276, 357.649 1325.528 C 358.327 1327.294, 361.897 1329.436, 362.746 1328.587 C 363.062 1328.271, 362.602 1327.218, 361.724 1326.247 C 359.397 1323.676, 358.831 1319.079, 360.541 1316.638 C 362.440 1313.927, 362.388 1313.388, 360 1311 C 358.561 1309.561, 356.667 1309, 353.250 1309 L 348.500 1309 348.500 1318.500 M 374.393 1310.582 C 374.727 1311.452, 375 1315.727, 375 1320.082 C 375 1326.454, 375.293 1328, 376.500 1328 C 377.728 1328, 378 1326.278, 378 1318.500 C 378 1309.506, 377.888 1309, 375.893 1309 C 374.383 1309, 373.958 1309.448, 374.393 1310.582 M 388 1309.937 C 388 1310.452, 389.462 1311.014, 391.250 1311.187 L 394.500 1311.500 394.790 1319.750 C 395.006 1325.874, 395.429 1328, 396.433 1328 C 398.345 1328, 399 1325.709, 399 1319.027 C 399 1313.663, 399.192 1313.169, 401.500 1312.589 C 402.875 1312.244, 404 1311.295, 404 1310.481 C 404 1309.296, 402.399 1309, 396 1309 C 391.600 1309, 388 1309.421, 388 1309.937 M 414.004 1309.750 C 414.007 1310.162, 415.355 1312.525, 417 1315 C 419.143 1318.224, 419.993 1320.705, 419.996 1323.750 C 420.002 1330.234, 422.324 1329.147, 423.678 1322.027 C 424.302 1318.741, 425.755 1314.856, 426.906 1313.392 C 429.293 1310.358, 429.555 1308.995, 427.750 1309.010 C 427.063 1309.016, 425.746 1310.816, 424.824 1313.010 C 423.286 1316.674, 421 1318.436, 421 1315.960 C 421 1314.237, 416.720 1309, 415.312 1309 C 414.590 1309, 414.002 1309.338, 414.004 1309.750 M 488 1318.500 C 488 1326.278, 488.272 1328, 489.500 1328 C 490.728 1328, 491 1326.278, 491 1318.500 C 491 1310.722, 490.728 1309, 489.500 1309 C 488.272 1309, 488 1310.722, 488 1318.500 M 504 1318.500 C 504 1324.167, 504.404 1328, 505 1328 C 505.556 1328, 506 1325.333, 506 1322 C 506 1318.700, 506.384 1316, 506.852 1316 C 507.321 1316, 509.826 1318.700, 512.419 1322 C 515.011 1325.300, 517.553 1328, 518.066 1328 C 518.580 1328, 519 1323.725, 519 1318.500 C 519 1312.833, 518.596 1309, 518 1309 C 517.444 1309, 517 1311.667, 517 1315 C 517 1318.300, 516.622 1321, 516.160 1321 C 515.699 1321, 513.224 1318.300, 510.662 1315 C 508.099 1311.700, 505.552 1309, 505.001 1309 C 504.403 1309, 504 1312.827, 504 1318.500 M 530 1309.958 C 530 1310.531, 531.350 1311, 533 1311 L 536 1311 536 1319.500 C 536 1326.389, 536.284 1328, 537.500 1328 C 538.717 1328, 539 1326.374, 539 1319.369 L 539 1310.738 542.566 1311.317 C 545.092 1311.727, 546.016 1311.546, 545.736 1310.698 C 545.227 1309.160, 530 1308.444, 530 1309.958 M 556 1316.545 C 556 1323.284, 556.270 1324.361, 558.530 1326.621 C 560.647 1328.738, 561.815 1329.096, 565.686 1328.814 C 571.006 1328.427, 570.942 1328.557, 571.708 1316.750 C 572.141 1310.092, 571.986 1309, 570.606 1309 C 569.266 1309, 569 1310.318, 569 1316.965 C 569 1323.816, 568.730 1325.074, 567.066 1325.965 C 564.318 1327.435, 563.269 1327.269, 561 1325 C 559.381 1323.381, 559 1321.667, 559 1316 C 559 1310.444, 558.690 1309, 557.500 1309 C 556.299 1309, 556 1310.505, 556 1316.545 M 584 1318.500 C 584 1326.278, 584.272 1328, 585.500 1328 C 586.728 1328, 587 1326.278, 587 1318.500 C 587 1310.722, 586.728 1309, 585.500 1309 C 584.272 1309, 584 1310.722, 584 1318.500 M 598 1310 C 598 1310.550, 599.575 1311, 601.500 1311 L 605 1311 605 1319.500 C 605 1326.389, 605.284 1328, 606.500 1328 C 607.716 1328, 608 1326.389, 608 1319.500 L 608 1311 611 1311 C 612.650 1311, 614 1310.550, 614 1310 C 614 1309.417, 610.667 1309, 606 1309 C 601.333 1309, 598 1309.417, 598 1310 M 625 1318.500 C 625 1326.278, 625.272 1328, 626.500 1328 C 627.728 1328, 628 1326.278, 628 1318.500 C 628 1310.722, 627.728 1309, 626.500 1309 C 625.272 1309, 625 1310.722, 625 1318.500 M 668.409 1318.500 C 668.450 1325.474, 668.802 1328, 669.732 1328 C 670.546 1328, 671 1326.557, 671 1323.969 C 671 1317.816, 673.432 1317.603, 678.267 1323.331 C 680.435 1325.899, 682.611 1328, 683.104 1328 C 683.597 1328, 684 1323.725, 684 1318.500 C 684 1312.833, 683.596 1309, 683 1309 C 682.444 1309, 682 1311.667, 682 1315 C 682 1318.300, 681.580 1321, 681.066 1321 C 680.553 1321, 678.011 1318.300, 675.419 1315 C 672.826 1311.700, 670.176 1309, 669.529 1309 C 668.706 1309, 668.370 1311.853, 668.409 1318.500 M 738 1309.934 C 738 1310.447, 739.237 1311.010, 740.750 1311.184 C 743.475 1311.497, 743.503 1311.575, 743.790 1319.750 C 744.017 1326.182, 744.402 1328, 745.540 1328 C 746.687 1328, 747 1326.432, 747 1320.700 C 747 1312.883, 747.912 1311, 751.700 1311 C 752.965 1311, 754 1310.550, 754 1310 C 754 1309.417, 750.667 1309, 746 1309 C 741.600 1309, 738 1309.420, 738 1309.934 M 764 1318.500 C 764 1327.333, 764.140 1328, 766 1328 C 767.556 1328, 768 1327.333, 768 1325 C 768 1323.063, 768.508 1322, 769.432 1322 C 770.219 1322, 771.825 1323.350, 773 1325 C 774.175 1326.650, 775.781 1328, 776.568 1328 C 778.485 1328, 778.342 1326.994, 776 1324 C 773.636 1320.977, 773.524 1319.640, 775.500 1318 C 776.325 1317.315, 777 1315.717, 777 1314.449 C 777 1310.744, 774.417 1309, 768.929 1309 L 764 1309 764 1318.500 M 789 1312.917 C 789 1315.072, 788.438 1317.096, 787.750 1317.417 C 786.750 1317.883, 786.750 1318.117, 787.750 1318.583 C 788.438 1318.904, 789 1320.275, 789 1321.629 C 789 1325.003, 793.219 1329, 796.780 1329 C 801.720 1329, 803.744 1325.644, 804.169 1316.750 C 804.445 1310.959, 804.218 1309, 803.269 1309 C 802.349 1309, 802 1311.205, 802 1317.021 C 802 1324.572, 801.856 1325.109, 799.541 1326.163 C 797.572 1327.061, 796.576 1326.952, 794.541 1325.619 C 792.195 1324.081, 792 1323.381, 792 1316.477 C 792 1310.497, 791.700 1309, 790.500 1309 C 789.422 1309, 789 1310.102, 789 1312.917 M 814 1310.504 C 814 1311.586, 814.912 1311.936, 817.250 1311.754 L 820.500 1311.500 820.790 1319.750 C 821.017 1326.182, 821.402 1328, 822.540 1328 C 823.682 1328, 824 1326.463, 824 1320.948 C 824 1314.011, 824.049 1313.879, 827 1312.850 C 828.650 1312.275, 830 1311.173, 830 1310.402 C 830 1309.316, 828.196 1309, 822 1309 C 815.547 1309, 814 1309.291, 814 1310.504 M 840 1312.417 C 840 1314.296, 839.438 1316.037, 838.750 1316.286 C 837.750 1316.648, 837.750 1317.162, 838.750 1318.856 C 839.438 1320.020, 840 1322.554, 840 1324.486 C 840 1329.839, 842.799 1329.194, 843.193 1323.750 L 843.500 1319.500 848 1319.500 L 852.500 1319.500 852.807 1323.750 C 853.017 1326.644, 853.575 1328, 854.557 1328 C 855.713 1328, 856 1326.109, 856 1318.500 C 856 1310.722, 855.728 1309, 854.500 1309 C 853.413 1309, 853 1310.117, 853 1313.055 L 853 1317.110 848.250 1316.805 C 843.546 1316.503, 843.497 1316.464, 843.190 1312.750 C 842.779 1307.784, 840 1307.494, 840 1312.417 M 353.516 1312.250 C 352.325 1315.787, 352.598 1317.448, 354.434 1317.822 C 357.079 1318.363, 359.233 1315.304, 357.926 1312.862 C 356.793 1310.744, 354.147 1310.377, 353.516 1312.250 M 645.686 1312.691 C 642.221 1314.513, 641.594 1316.023, 642.437 1320.515 C 643.213 1324.654, 646.878 1327.498, 650.321 1326.634 C 654.615 1325.557, 656.478 1317.555, 653.443 1313.223 C 651.675 1310.698, 649.732 1310.565, 645.686 1312.691 M 769.229 1312.171 C 767.530 1313.870, 767.689 1316.943, 769.513 1317.643 C 771.634 1318.457, 774.154 1316.079, 773.798 1313.598 C 773.450 1311.172, 770.995 1310.405, 769.229 1312.171 M 326.630 1316.250 C 325.582 1320.162, 325.931 1321, 328.607 1321 C 330.698 1321, 331.071 1320.653, 330.494 1319.250 C 330.097 1318.287, 329.547 1316.713, 329.270 1315.750 C 328.574 1313.329, 327.351 1313.561, 326.630 1316.250 M 455.441 1317.096 C 455.068 1317.699, 455.379 1318.807, 456.132 1319.560 C 457.866 1321.294, 460.530 1319.823, 459.677 1317.601 C 458.974 1315.769, 456.447 1315.468, 455.441 1317.096 M 709.473 1317.044 C 708.555 1318.529, 710.871 1320.987, 712.573 1320.334 C 714.765 1319.492, 714.351 1316, 712.059 1316 C 710.991 1316, 709.828 1316.470, 709.473 1317.044" stroke="none" fill="#faf6f0" fill-rule="evenodd"/></svg>